<svg width="200" height="398" viewBox="0 0 200 398" fill="none" xmlns="http://www.w3.org/2000/svg">
<path d="M3.36449 6.77871C4.04417 6.78871 4.7114 6.59717 5.28075 6.2286C5.85011 5.86003 6.29568 5.33122 6.56045 4.70984C6.82523 4.08846 6.89717 3.40279 6.76703 2.7406C6.63689 2.07842 6.31059 1.46982 5.82994 0.992763C5.34928 0.515702 4.73609 0.191873 4.06891 0.0627035C3.40173 -0.0664655 2.7109 0.00491891 2.08483 0.267713C1.45876 0.530507 0.92596 0.972759 0.554612 1.53785C0.183264 2.10295 -0.00969594 2.76516 0.000375041 3.43975C0.0135346 4.32123 0.372166 5.16295 1.00023 5.78632C1.6283 6.40968 2.47637 6.76565 3.36449 6.77871Z" fill="black"/>
<path d="M42.5113 6.77871C43.191 6.78871 43.8582 6.59717 44.4276 6.2286C44.9969 5.86003 45.4425 5.33122 45.7073 4.70984C45.9721 4.08846 46.044 3.40279 45.9139 2.7406C45.7837 2.07842 45.4574 1.46982 44.9768 0.992763C44.4961 0.515702 43.8829 0.191873 43.2157 0.0627035C42.5485 -0.0664655 41.8577 0.00491891 41.2316 0.267713C40.6055 0.530507 40.0727 0.972759 39.7014 1.53785C39.33 2.10295 39.137 2.76516 39.1471 3.43975C39.1603 4.32123 39.5189 5.16295 40.147 5.78632C40.7751 6.40968 41.6232 6.76565 42.5113 6.77871Z" fill="black"/>
<path d="M82.0657 6.77871C82.7454 6.78871 83.4126 6.59717 83.982 6.2286C84.5513 5.86003 84.9969 5.33122 85.2617 4.70984C85.5265 4.08846 85.5984 3.40279 85.4683 2.7406C85.3381 2.07842 85.0118 1.46982 84.5312 0.992763C84.0505 0.515702 83.4373 0.191873 82.7701 0.0627035C82.103 -0.0664655 81.4121 0.00491891 80.786 0.267713C80.16 0.530507 79.6272 0.972759 79.2558 1.53785C78.8845 2.10295 78.6915 2.76516 78.7015 3.43975C78.7147 4.32123 79.0734 5.16295 79.7014 5.78632C80.3295 6.40968 81.1776 6.76565 82.0657 6.77871Z" fill="black"/>
<path d="M121.416 6.77871C122.096 6.78871 122.763 6.59717 123.333 6.2286C123.902 5.86003 124.348 5.33122 124.612 4.70984C124.877 4.08846 124.949 3.40279 124.819 2.7406C124.689 2.07842 124.362 1.46982 123.882 0.992763C123.401 0.515702 122.788 0.191873 122.121 0.0627035C121.454 -0.0664655 120.763 0.00491891 120.137 0.267713C119.511 0.530507 118.978 0.972759 118.606 1.53785C118.235 2.10295 118.042 2.76516 118.052 3.43975C118.065 4.32123 118.424 5.16295 119.052 5.78632C119.68 6.40968 120.528 6.76565 121.416 6.77871Z" fill="black"/>
<path d="M160.767 6.77871C161.447 6.78871 162.114 6.59717 162.683 6.2286C163.252 5.86003 163.698 5.33122 163.963 4.70984C164.228 4.08846 164.3 3.40279 164.169 2.7406C164.039 2.07842 163.713 1.46982 163.232 0.992763C162.752 0.515702 162.139 0.191873 161.471 0.0627035C160.804 -0.0664655 160.113 0.00491891 159.487 0.267713C158.861 0.530507 158.328 0.972759 157.957 1.53785C157.586 2.10295 157.393 2.76516 157.403 3.43975C157.403 4.3253 157.757 5.17458 158.388 5.80075C159.019 6.42693 159.875 6.77871 160.767 6.77871Z" fill="black"/>
<path d="M3.36449 45.8344C4.04417 45.8444 4.7114 45.6529 5.28075 45.2843C5.85011 44.9157 6.29568 44.3869 6.56045 43.7655C6.82523 43.1441 6.89717 42.4585 6.76703 41.7963C6.63689 41.1341 6.31059 40.5255 5.82994 40.0484C5.34928 39.5714 4.73609 39.2475 4.06891 39.1184C3.40173 38.9892 2.7109 39.0606 2.08483 39.3234C1.45876 39.5862 0.92596 40.0284 0.554612 40.5935C0.183264 41.1586 -0.00969594 41.8209 0.000375041 42.4954C0.0135346 43.3769 0.372166 44.2186 1.00023 44.842C1.6283 45.4654 2.47637 45.8213 3.36449 45.8344Z" fill="black"/>
<path d="M42.5113 45.8344C43.191 45.8444 43.8582 45.6529 44.4276 45.2843C44.9969 44.9157 45.4425 44.3869 45.7073 43.7655C45.9721 43.1441 46.044 42.4585 45.9139 41.7963C45.7837 41.1341 45.4574 40.5255 44.9768 40.0484C44.4961 39.5714 43.8829 39.2475 43.2157 39.1184C42.5485 38.9892 41.8577 39.0606 41.2316 39.3234C40.6055 39.5862 40.0727 40.0284 39.7014 40.5935C39.33 41.1586 39.137 41.8209 39.1471 42.4954C39.1603 43.3769 39.5189 44.2186 40.147 44.842C40.7751 45.4654 41.6232 45.8213 42.5113 45.8344Z" fill="black"/>
<path d="M82.0657 45.8344C82.7454 45.8444 83.4126 45.6529 83.982 45.2843C84.5513 44.9157 84.9969 44.3869 85.2617 43.7655C85.5265 43.1441 85.5984 42.4585 85.4683 41.7963C85.3381 41.1341 85.0118 40.5255 84.5312 40.0484C84.0505 39.5714 83.4373 39.2475 82.7701 39.1184C82.103 38.9892 81.4121 39.0606 80.786 39.3234C80.16 39.5862 79.6272 40.0284 79.2558 40.5935C78.8845 41.1586 78.6915 41.8209 78.7015 42.4954C78.7147 43.3769 79.0734 44.2186 79.7014 44.842C80.3295 45.4654 81.1776 45.8213 82.0657 45.8344Z" fill="black"/>
<path d="M121.416 45.8344C122.096 45.8444 122.763 45.6529 123.333 45.2843C123.902 44.9157 124.348 44.3869 124.612 43.7655C124.877 43.1441 124.949 42.4585 124.819 41.7963C124.689 41.1341 124.362 40.5255 123.882 40.0484C123.401 39.5714 122.788 39.2475 122.121 39.1184C121.454 38.9892 120.763 39.0606 120.137 39.3234C119.511 39.5862 118.978 40.0284 118.606 40.5935C118.235 41.1586 118.042 41.8209 118.052 42.4954C118.065 43.3769 118.424 44.2186 119.052 44.842C119.68 45.4654 120.528 45.8213 121.416 45.8344Z" fill="black"/>
<path d="M160.767 45.8344C161.447 45.8444 162.114 45.6529 162.683 45.2843C163.252 44.9157 163.698 44.3869 163.963 43.7655C164.228 43.1441 164.3 42.4585 164.169 41.7963C164.039 41.1341 163.713 40.5255 163.232 40.0484C162.752 39.5714 162.139 39.2475 161.471 39.1184C160.804 38.9892 160.113 39.0606 159.487 39.3234C158.861 39.5862 158.328 40.0284 157.957 40.5935C157.586 41.1586 157.393 41.8209 157.403 42.4954C157.403 43.381 157.757 44.2303 158.388 44.8564C159.019 45.4826 159.875 45.8344 160.767 45.8344Z" fill="black"/>
<path d="M3.36449 84.8901C4.04417 84.9001 4.7114 84.7085 5.28075 84.34C5.85011 83.9714 6.29568 83.4426 6.56045 82.8212C6.82523 82.1998 6.89717 81.5142 6.76703 80.852C6.63689 80.1898 6.31059 79.5812 5.82994 79.1041C5.34928 78.6271 4.73609 78.3033 4.06891 78.1741C3.40173 78.0449 2.7109 78.1163 2.08483 78.3791C1.45876 78.6419 0.92596 79.0841 0.554612 79.6492C0.183264 80.2143 -0.00969594 80.8765 0.000375041 81.5511C0.0135346 82.4326 0.372166 83.2743 1.00023 83.8977C1.6283 84.5211 2.47637 84.877 3.36449 84.8901Z" fill="black"/>
<path d="M42.5113 84.8901C43.191 84.9001 43.8582 84.7085 44.4276 84.34C44.9969 83.9714 45.4425 83.4426 45.7073 82.8212C45.9721 82.1998 46.044 81.5142 45.9139 80.852C45.7837 80.1898 45.4574 79.5812 44.9768 79.1041C44.4961 78.6271 43.8829 78.3033 43.2157 78.1741C42.5485 78.0449 41.8577 78.1163 41.2316 78.3791C40.6055 78.6419 40.0727 79.0841 39.7014 79.6492C39.33 80.2143 39.137 80.8765 39.1471 81.5511C39.1603 82.4326 39.5189 83.2743 40.147 83.8977C40.7751 84.5211 41.6232 84.877 42.5113 84.8901Z" fill="black"/>
<path d="M82.0657 84.8901C82.7454 84.9001 83.4126 84.7085 83.982 84.34C84.5513 83.9714 84.9969 83.4426 85.2617 82.8212C85.5265 82.1998 85.5984 81.5142 85.4683 80.852C85.3381 80.1898 85.0118 79.5812 84.5312 79.1041C84.0505 78.6271 83.4373 78.3033 82.7701 78.1741C82.103 78.0449 81.4121 78.1163 80.786 78.3791C80.16 78.6419 79.6272 79.0841 79.2558 79.6492C78.8845 80.2143 78.6915 80.8765 78.7015 81.5511C78.7147 82.4326 79.0734 83.2743 79.7014 83.8977C80.3295 84.5211 81.1776 84.877 82.0657 84.8901Z" fill="black"/>
<path d="M121.416 84.8901C122.096 84.9001 122.763 84.7085 123.333 84.34C123.902 83.9714 124.348 83.4426 124.612 82.8212C124.877 82.1998 124.949 81.5142 124.819 80.852C124.689 80.1898 124.362 79.5812 123.882 79.1041C123.401 78.6271 122.788 78.3033 122.121 78.1741C121.454 78.0449 120.763 78.1163 120.137 78.3791C119.511 78.6419 118.978 79.0841 118.606 79.6492C118.235 80.2143 118.042 80.8765 118.052 81.5511C118.065 82.4326 118.424 83.2743 119.052 83.8977C119.68 84.5211 120.528 84.877 121.416 84.8901Z" fill="black"/>
<path d="M160.767 84.8901C161.447 84.9001 162.114 84.7085 162.683 84.34C163.252 83.9714 163.698 83.4426 163.963 82.8212C164.228 82.1998 164.3 81.5142 164.169 80.852C164.039 80.1898 163.713 79.5812 163.232 79.1041C162.752 78.6271 162.139 78.3033 161.471 78.1741C160.804 78.0449 160.113 78.1163 159.487 78.3791C158.861 78.6419 158.328 79.0841 157.957 79.6492C157.586 80.2143 157.393 80.8765 157.403 81.5511C157.403 82.4367 157.757 83.2859 158.388 83.9121C159.019 84.5383 159.875 84.8901 160.767 84.8901Z" fill="black"/>
<path d="M3.36461 123.946C4.04213 123.956 4.70735 123.766 5.27563 123.399C5.8439 123.033 6.28956 122.507 6.55587 121.889C6.82219 121.27 6.89712 120.587 6.77116 119.927C6.6452 119.266 6.32405 118.657 5.84853 118.178C5.37301 117.699 4.76463 117.371 4.10081 117.236C3.43699 117.101 2.74773 117.165 2.12072 117.42C1.49372 117.675 0.957291 118.11 0.579732 118.668C0.202172 119.226 0.00056378 119.884 0.000488302 120.556C0.000388388 121.447 0.353179 122.301 0.982655 122.935C1.61213 123.57 2.46773 123.933 3.36461 123.946Z" fill="black"/>
<path d="M42.5112 123.946C43.1887 123.956 43.8539 123.766 44.4222 123.399C44.9905 123.033 45.4362 122.507 45.7025 121.889C45.9688 121.27 46.0437 120.587 45.9178 119.927C45.7918 119.266 45.4707 118.657 44.9951 118.178C44.5196 117.699 43.9112 117.371 43.2474 117.236C42.5836 117.101 41.8943 117.165 41.2673 117.42C40.6403 117.675 40.1038 118.11 39.7263 118.668C39.3487 119.226 39.147 119.884 39.147 120.556C39.1469 121.447 39.4997 122.301 40.1292 122.935C40.7587 123.57 41.6143 123.933 42.5112 123.946Z" fill="black"/>
<path d="M82.0656 123.946C82.7432 123.956 83.4084 123.766 83.9767 123.399C84.5449 123.033 84.9906 122.507 85.2569 121.889C85.5232 121.27 85.5982 120.587 85.4722 119.927C85.3462 119.266 85.0251 118.657 84.5495 118.178C84.074 117.699 83.4657 117.371 82.8018 117.236C82.138 117.101 81.4487 117.165 80.8217 117.42C80.1947 117.675 79.6583 118.11 79.2807 118.668C78.9031 119.226 78.7015 119.884 78.7014 120.556C78.7013 121.447 79.0541 122.301 79.6836 122.935C80.3131 123.57 81.1687 123.933 82.0656 123.946Z" fill="black"/>
<path d="M121.416 123.946C122.094 123.956 122.759 123.766 123.327 123.399C123.896 123.033 124.341 122.507 124.608 121.889C124.874 121.27 124.949 120.587 124.823 119.927C124.697 119.266 124.376 118.657 123.9 118.178C123.425 117.699 122.816 117.371 122.152 117.236C121.489 117.101 120.799 117.165 120.172 117.42C119.545 117.675 119.009 118.11 118.631 118.668C118.254 119.226 118.052 119.884 118.052 120.556C118.052 121.447 118.405 122.301 119.034 122.935C119.664 123.57 120.519 123.933 121.416 123.946Z" fill="black"/>
<path d="M160.767 123.946C161.444 123.956 162.11 123.766 162.678 123.399C163.246 123.033 163.692 122.507 163.958 121.889C164.225 121.27 164.299 120.587 164.174 119.927C164.048 119.266 163.726 118.657 163.251 118.178C162.775 117.699 162.167 117.371 161.503 117.236C160.839 117.101 160.15 117.165 159.523 117.42C158.896 117.675 158.36 118.11 157.982 118.668C157.604 119.226 157.403 119.884 157.403 120.556C157.396 120.999 157.478 121.439 157.644 121.85C157.81 122.261 158.057 122.635 158.37 122.95C158.683 123.265 159.056 123.516 159.468 123.687C159.879 123.858 160.321 123.946 160.767 123.946Z" fill="black"/>
<path d="M3.36461 163.103C4.04213 163.113 4.70735 162.922 5.27563 162.556C5.8439 162.19 6.28956 161.664 6.55587 161.046C6.82219 160.427 6.89712 159.744 6.77116 159.083C6.6452 158.423 6.32405 157.814 5.84853 157.335C5.37301 156.856 4.76463 156.528 4.10081 156.393C3.43699 156.258 2.74773 156.322 2.12072 156.577C1.49372 156.832 0.957291 157.266 0.579732 157.825C0.202172 158.383 0.00056378 159.041 0.000488302 159.713C0.000388388 160.603 0.353179 161.458 0.982655 162.092C1.61213 162.726 2.46773 163.089 3.36461 163.103Z" fill="black"/>
<path d="M42.5112 163.103C43.1887 163.113 43.8539 162.922 44.4222 162.556C44.9905 162.19 45.4362 161.664 45.7025 161.046C45.9688 160.427 46.0437 159.744 45.9178 159.083C45.7918 158.423 45.4707 157.814 44.9951 157.335C44.5196 156.856 43.9112 156.528 43.2474 156.393C42.5836 156.258 41.8943 156.322 41.2673 156.577C40.6403 156.832 40.1038 157.266 39.7263 157.825C39.3487 158.383 39.147 159.041 39.147 159.713C39.1469 160.603 39.4997 161.458 40.1292 162.092C40.7587 162.726 41.6143 163.089 42.5112 163.103Z" fill="black"/>
<path d="M82.0656 163.103C82.7432 163.113 83.4084 162.922 83.9767 162.556C84.5449 162.19 84.9906 161.664 85.2569 161.046C85.5232 160.427 85.5982 159.744 85.4722 159.083C85.3462 158.423 85.0251 157.814 84.5495 157.335C84.074 156.856 83.4657 156.528 82.8018 156.393C82.138 156.258 81.4487 156.322 80.8217 156.577C80.1947 156.832 79.6583 157.266 79.2807 157.825C78.9031 158.383 78.7015 159.041 78.7014 159.713C78.7013 160.603 79.0541 161.458 79.6836 162.092C80.3131 162.726 81.1687 163.089 82.0656 163.103Z" fill="black"/>
<path d="M121.416 163.103C122.094 163.113 122.759 162.922 123.327 162.556C123.896 162.19 124.341 161.664 124.608 161.046C124.874 160.427 124.949 159.744 124.823 159.083C124.697 158.423 124.376 157.814 123.9 157.335C123.425 156.856 122.816 156.528 122.152 156.393C121.489 156.258 120.799 156.322 120.172 156.577C119.545 156.832 119.009 157.266 118.631 157.825C118.254 158.383 118.052 159.041 118.052 159.713C118.052 160.603 118.405 161.458 119.034 162.092C119.664 162.726 120.519 163.089 121.416 163.103Z" fill="black"/>
<path d="M160.767 163.103C161.444 163.113 162.11 162.922 162.678 162.556C163.246 162.19 163.692 161.664 163.958 161.046C164.225 160.427 164.299 159.744 164.174 159.083C164.048 158.423 163.726 157.814 163.251 157.335C162.775 156.856 162.167 156.528 161.503 156.393C160.839 156.258 160.15 156.322 159.523 156.577C158.896 156.832 158.36 157.266 157.982 157.825C157.604 158.383 157.403 159.041 157.403 159.713C157.396 160.156 157.478 160.595 157.644 161.006C157.81 161.417 158.057 161.791 158.37 162.107C158.683 162.422 159.056 162.673 159.468 162.844C159.879 163.015 160.321 163.103 160.767 163.103Z" fill="black"/>
<path d="M3.36461 202.057C4.04213 202.067 4.70735 201.877 5.27563 201.511C5.8439 201.144 6.28956 200.619 6.55587 200C6.82219 199.382 6.89712 198.699 6.77116 198.038C6.6452 197.377 6.32405 196.768 5.84853 196.289C5.37301 195.81 4.76463 195.482 4.10081 195.347C3.43699 195.212 2.74773 195.277 2.12072 195.532C1.49372 195.787 0.957291 196.221 0.579732 196.779C0.202172 197.338 0.00056378 197.995 0.000488302 198.668C0.000388388 199.558 0.353179 200.412 0.982655 201.047C1.61213 201.681 2.46773 202.044 3.36461 202.057Z" fill="black"/>
<path d="M42.5112 202.057C43.1887 202.067 43.8539 201.877 44.4222 201.511C44.9905 201.144 45.4362 200.619 45.7025 200C45.9688 199.382 46.0437 198.699 45.9178 198.038C45.7918 197.377 45.4707 196.768 44.9951 196.289C44.5196 195.81 43.9112 195.482 43.2474 195.347C42.5836 195.212 41.8943 195.277 41.2673 195.532C40.6403 195.787 40.1038 196.221 39.7263 196.779C39.3487 197.338 39.147 197.995 39.147 198.668C39.1469 199.558 39.4997 200.412 40.1292 201.047C40.7587 201.681 41.6143 202.044 42.5112 202.057Z" fill="black"/>
<path d="M82.0656 202.057C82.7365 202.066 83.3953 201.879 83.9597 201.519C84.5241 201.159 84.9692 200.642 85.2393 200.033C85.5094 199.423 85.5926 198.748 85.4786 198.092C85.3645 197.436 85.0583 196.827 84.598 196.343C84.1377 195.858 83.5438 195.519 82.8905 195.367C82.2371 195.216 81.5533 195.259 80.9243 195.49C80.2953 195.722 79.7491 196.133 79.3538 196.671C78.9584 197.209 78.7315 197.851 78.7014 198.516C78.6809 198.969 78.7524 199.422 78.9116 199.848C79.0708 200.273 79.3145 200.663 79.6283 200.993C79.9421 201.324 80.3195 201.588 80.7382 201.771C81.1569 201.953 81.6083 202.051 82.0656 202.057Z" fill="black"/>
<path d="M121.416 202.057C122.094 202.067 122.759 201.877 123.327 201.511C123.896 201.144 124.341 200.619 124.608 200C124.874 199.382 124.949 198.699 124.823 198.038C124.697 197.377 124.376 196.768 123.9 196.289C123.425 195.81 122.816 195.482 122.152 195.347C121.489 195.212 120.799 195.277 120.172 195.532C119.545 195.787 119.009 196.221 118.631 196.779C118.254 197.338 118.052 197.995 118.052 198.668C118.052 199.558 118.405 200.412 119.034 201.047C119.664 201.681 120.519 202.044 121.416 202.057Z" fill="black"/>
<path d="M160.767 202.057C161.444 202.067 162.11 201.877 162.678 201.511C163.246 201.144 163.692 200.619 163.958 200C164.225 199.382 164.299 198.699 164.174 198.038C164.048 197.377 163.726 196.768 163.251 196.289C162.775 195.81 162.167 195.482 161.503 195.347C160.839 195.212 160.15 195.277 159.523 195.532C158.896 195.787 158.36 196.221 157.982 196.779C157.604 197.338 157.403 197.995 157.403 198.668C157.396 199.11 157.478 199.55 157.644 199.961C157.81 200.372 158.057 200.746 158.37 201.061C158.683 201.377 159.056 201.627 159.468 201.798C159.879 201.969 160.321 202.057 160.767 202.057Z" fill="black"/>
<path d="M3.36461 241.113C4.04213 241.123 4.70735 240.933 5.27563 240.566C5.8439 240.2 6.28956 239.674 6.55587 239.056C6.82219 238.437 6.89712 237.754 6.77116 237.094C6.6452 236.433 6.32405 235.824 5.84853 235.345C5.37301 234.866 4.76463 234.538 4.10081 234.403C3.43699 234.268 2.74773 234.332 2.12072 234.587C1.49372 234.842 0.957291 235.277 0.579732 235.835C0.202172 236.393 0.00056378 237.051 0.000488302 237.723C0.000388388 238.614 0.353179 239.468 0.982655 240.102C1.61213 240.737 2.46773 241.1 3.36461 241.113Z" fill="black"/>
<path d="M42.5112 241.113C43.1887 241.123 43.8539 240.933 44.4222 240.566C44.9905 240.2 45.4362 239.674 45.7025 239.056C45.9688 238.437 46.0437 237.754 45.9178 237.094C45.7918 236.433 45.4707 235.824 44.9951 235.345C44.5196 234.866 43.9112 234.538 43.2474 234.403C42.5836 234.268 41.8943 234.332 41.2673 234.587C40.6403 234.842 40.1038 235.277 39.7263 235.835C39.3487 236.393 39.147 237.051 39.147 237.723C39.1469 238.614 39.4997 239.468 40.1292 240.102C40.7587 240.737 41.6143 241.1 42.5112 241.113Z" fill="black"/>
<path d="M82.0656 241.113C82.7432 241.123 83.4084 240.933 83.9767 240.566C84.5449 240.2 84.9906 239.674 85.2569 239.056C85.5232 238.437 85.5982 237.754 85.4722 237.094C85.3462 236.433 85.0251 235.824 84.5495 235.345C84.074 234.866 83.4657 234.538 82.8018 234.403C82.138 234.268 81.4487 234.332 80.8217 234.587C80.1947 234.842 79.6583 235.277 79.2807 235.835C78.9031 236.393 78.7015 237.051 78.7014 237.723C78.7013 238.614 79.0541 239.468 79.6836 240.102C80.3131 240.737 81.1687 241.1 82.0656 241.113Z" fill="black"/>
<path d="M121.416 241.113C122.094 241.123 122.759 240.933 123.327 240.566C123.896 240.2 124.341 239.674 124.608 239.056C124.874 238.437 124.949 237.754 124.823 237.094C124.697 236.433 124.376 235.824 123.9 235.345C123.425 234.866 122.816 234.538 122.152 234.403C121.489 234.268 120.799 234.332 120.172 234.587C119.545 234.842 119.009 235.277 118.631 235.835C118.254 236.393 118.052 237.051 118.052 237.723C118.052 238.614 118.405 239.468 119.034 240.102C119.664 240.737 120.519 241.1 121.416 241.113Z" fill="black"/>
<path d="M160.767 241.113C161.444 241.123 162.11 240.933 162.678 240.566C163.246 240.2 163.692 239.674 163.958 239.056C164.225 238.437 164.299 237.754 164.174 237.094C164.048 236.433 163.726 235.824 163.251 235.345C162.775 234.866 162.167 234.538 161.503 234.403C160.839 234.268 160.15 234.332 159.523 234.587C158.896 234.842 158.36 235.277 157.982 235.835C157.604 236.393 157.403 237.051 157.403 237.723C157.396 238.166 157.478 238.606 157.644 239.017C157.81 239.428 158.057 239.802 158.37 240.117C158.683 240.433 159.056 240.683 159.468 240.854C159.879 241.025 160.321 241.113 160.767 241.113Z" fill="black"/>
<path d="M3.36463 280.118C4.03 280.118 4.68043 279.922 5.23366 279.555C5.78689 279.188 6.2181 278.667 6.47273 278.057C6.72736 277.447 6.79395 276.775 6.66414 276.128C6.53433 275.48 6.21394 274.885 5.74345 274.418C5.27296 273.951 4.67354 273.633 4.02095 273.504C3.36837 273.375 2.69194 273.442 2.07722 273.694C1.4625 273.947 0.937105 274.375 0.567446 274.924C0.197787 275.473 0.000488281 276.119 0.000488281 276.779C0.000488281 277.665 0.354908 278.514 0.985811 279.14C1.61671 279.766 2.4724 280.118 3.36463 280.118Z" fill="black"/>
<path d="M42.5111 280.118C43.1765 280.118 43.8269 279.922 44.3802 279.555C44.9334 279.188 45.3646 278.667 45.6192 278.057C45.8739 277.447 45.9405 276.775 45.8107 276.128C45.6808 275.48 45.3605 274.885 44.89 274.418C44.4195 273.951 43.8201 273.633 43.1675 273.504C42.5149 273.375 41.8385 273.442 41.2237 273.694C40.609 273.947 40.0836 274.375 39.714 274.924C39.3443 275.473 39.147 276.119 39.147 276.779C39.147 277.665 39.5014 278.514 40.1323 279.14C40.7632 279.766 41.6189 280.118 42.5111 280.118Z" fill="black"/>
<path d="M82.0656 280.118C82.731 280.118 83.3814 279.922 83.9346 279.555C84.4879 279.188 84.919 278.667 85.1737 278.057C85.4283 277.447 85.4949 276.775 85.3651 276.128C85.2353 275.48 84.9149 274.885 84.4444 274.418C83.9739 273.951 83.3745 273.633 82.7219 273.504C82.0693 273.375 81.3929 273.442 80.7782 273.694C80.1635 273.947 79.638 274.375 79.2684 274.924C78.8987 275.473 78.7014 276.119 78.7014 276.779C78.7014 277.665 79.0559 278.514 79.6868 279.14C80.3177 279.766 81.1734 280.118 82.0656 280.118Z" fill="black"/>
<path d="M121.416 280.118C122.082 280.118 122.732 279.922 123.285 279.555C123.838 279.188 124.27 278.667 124.524 278.057C124.779 277.447 124.846 276.775 124.716 276.128C124.586 275.48 124.266 274.885 123.795 274.418C123.325 273.951 122.725 273.633 122.073 273.504C121.42 273.375 120.744 273.442 120.129 273.694C119.514 273.947 118.989 274.375 118.619 274.924C118.249 275.473 118.052 276.119 118.052 276.779C118.052 277.665 118.406 278.514 119.037 279.14C119.668 279.766 120.524 280.118 121.416 280.118Z" fill="black"/>
<path d="M160.767 280.118C161.432 280.118 162.083 279.922 162.636 279.555C163.189 279.188 163.62 278.667 163.875 278.057C164.13 277.447 164.196 276.775 164.066 276.128C163.937 275.48 163.616 274.885 163.146 274.418C162.675 273.951 162.076 273.633 161.423 273.504C160.771 273.375 160.094 273.442 159.479 273.694C158.865 273.947 158.339 274.375 157.97 274.924C157.6 275.473 157.403 276.119 157.403 276.779C157.396 277.219 157.478 277.657 157.645 278.065C157.811 278.473 158.059 278.844 158.373 279.155C158.687 279.467 159.06 279.712 159.471 279.878C159.883 280.043 160.323 280.125 160.767 280.118Z" fill="black"/>
<path d="M3.36463 319.174C4.03 319.174 4.68043 318.978 5.23366 318.611C5.78689 318.244 6.2181 317.723 6.47273 317.113C6.72736 316.502 6.79395 315.831 6.66414 315.183C6.53433 314.536 6.21394 313.941 5.74345 313.474C5.27296 313.007 4.67354 312.689 4.02095 312.56C3.36837 312.431 2.69194 312.497 2.07722 312.75C1.4625 313.003 0.937105 313.431 0.567446 313.98C0.197787 314.529 0.000488281 315.174 0.000488281 315.835C0.000488281 316.72 0.354908 317.57 0.985811 318.196C1.61671 318.822 2.4724 319.174 3.36463 319.174Z" fill="black"/>
<path d="M42.5111 319.174C43.1765 319.174 43.8269 318.978 44.3802 318.611C44.9334 318.244 45.3646 317.723 45.6192 317.113C45.8739 316.502 45.9405 315.831 45.8107 315.183C45.6808 314.536 45.3605 313.941 44.89 313.474C44.4195 313.007 43.8201 312.689 43.1675 312.56C42.5149 312.431 41.8385 312.497 41.2237 312.75C40.609 313.003 40.0836 313.431 39.714 313.98C39.3443 314.529 39.147 315.174 39.147 315.835C39.147 316.72 39.5014 317.57 40.1323 318.196C40.7632 318.822 41.6189 319.174 42.5111 319.174Z" fill="black"/>
<path d="M82.0656 319.174C82.731 319.174 83.3814 318.978 83.9346 318.611C84.4879 318.244 84.919 317.723 85.1737 317.113C85.4283 316.502 85.4949 315.831 85.3651 315.183C85.2353 314.536 84.9149 313.941 84.4444 313.474C83.9739 313.007 83.3745 312.689 82.7219 312.56C82.0693 312.431 81.3929 312.497 80.7782 312.75C80.1635 313.003 79.638 313.431 79.2684 313.98C78.8987 314.529 78.7014 315.174 78.7014 315.835C78.7014 316.72 79.0559 317.57 79.6868 318.196C80.3177 318.822 81.1734 319.174 82.0656 319.174Z" fill="black"/>
<path d="M121.416 319.174C122.082 319.174 122.732 318.978 123.285 318.611C123.838 318.244 124.27 317.723 124.524 317.113C124.779 316.502 124.846 315.831 124.716 315.183C124.586 314.536 124.266 313.941 123.795 313.474C123.325 313.007 122.725 312.689 122.073 312.56C121.42 312.431 120.744 312.497 120.129 312.75C119.514 313.003 118.989 313.431 118.619 313.98C118.249 314.529 118.052 315.174 118.052 315.835C118.052 316.72 118.406 317.57 119.037 318.196C119.668 318.822 120.524 319.174 121.416 319.174Z" fill="black"/>
<path d="M160.767 319.174C161.432 319.174 162.083 318.978 162.636 318.611C163.189 318.244 163.62 317.723 163.875 317.113C164.13 316.502 164.196 315.831 164.066 315.183C163.937 314.536 163.616 313.941 163.146 313.474C162.675 313.007 162.076 312.689 161.423 312.56C160.771 312.431 160.094 312.497 159.479 312.75C158.865 313.003 158.339 313.431 157.97 313.98C157.6 314.529 157.403 315.174 157.403 315.835C157.396 316.275 157.478 316.712 157.645 317.121C157.811 317.529 158.059 317.9 158.373 318.211C158.687 318.522 159.06 318.768 159.471 318.933C159.883 319.099 160.323 319.181 160.767 319.174Z" fill="black"/>
<path d="M3.36463 358.229C4.03 358.229 4.68043 358.034 5.23366 357.667C5.78689 357.3 6.2181 356.778 6.47273 356.168C6.72736 355.558 6.79395 354.887 6.66414 354.239C6.53433 353.591 6.21394 352.996 5.74345 352.529C5.27296 352.062 4.67354 351.745 4.02095 351.616C3.36837 351.487 2.69194 351.553 2.07722 351.806C1.4625 352.058 0.937105 352.486 0.567446 353.035C0.197787 353.585 0.000488281 354.23 0.000488281 354.89C0.000488281 355.776 0.354908 356.625 0.985811 357.251C1.61671 357.878 2.4724 358.229 3.36463 358.229Z" fill="black"/>
<path d="M42.5111 358.229C43.1765 358.229 43.8269 358.034 44.3802 357.667C44.9334 357.3 45.3646 356.778 45.6192 356.168C45.8739 355.558 45.9405 354.887 45.8107 354.239C45.6808 353.591 45.3605 352.996 44.89 352.529C44.4195 352.062 43.8201 351.745 43.1675 351.616C42.5149 351.487 41.8385 351.553 41.2237 351.806C40.609 352.058 40.0836 352.486 39.714 353.035C39.3443 353.585 39.147 354.23 39.147 354.89C39.147 355.776 39.5014 356.625 40.1323 357.251C40.7632 357.878 41.6189 358.229 42.5111 358.229Z" fill="black"/>
<path d="M82.0656 358.229C82.731 358.229 83.3814 358.034 83.9346 357.667C84.4879 357.3 84.919 356.778 85.1737 356.168C85.4283 355.558 85.4949 354.887 85.3651 354.239C85.2353 353.591 84.9149 352.996 84.4444 352.529C83.9739 352.062 83.3745 351.745 82.7219 351.616C82.0693 351.487 81.3929 351.553 80.7782 351.806C80.1635 352.058 79.638 352.486 79.2684 353.035C78.8987 353.585 78.7014 354.23 78.7014 354.89C78.7014 355.776 79.0559 356.625 79.6868 357.251C80.3177 357.878 81.1734 358.229 82.0656 358.229Z" fill="black"/>
<path d="M121.416 358.229C122.082 358.229 122.732 358.034 123.285 357.667C123.838 357.3 124.27 356.778 124.524 356.168C124.779 355.558 124.846 354.887 124.716 354.239C124.586 353.591 124.266 352.996 123.795 352.529C123.325 352.062 122.725 351.745 122.073 351.616C121.42 351.487 120.744 351.553 120.129 351.806C119.514 352.058 118.989 352.486 118.619 353.035C118.249 353.585 118.052 354.23 118.052 354.89C118.052 355.776 118.406 356.625 119.037 357.251C119.668 357.878 120.524 358.229 121.416 358.229Z" fill="black"/>
<path d="M160.767 358.229C161.432 358.229 162.083 358.034 162.636 357.667C163.189 357.3 163.62 356.778 163.875 356.168C164.13 355.558 164.196 354.887 164.066 354.239C163.937 353.591 163.616 352.996 163.146 352.529C162.675 352.063 162.076 351.745 161.423 351.616C160.771 351.487 160.094 351.553 159.479 351.806C158.865 352.058 158.339 352.486 157.97 353.035C157.6 353.585 157.403 354.23 157.403 354.891C157.396 355.331 157.478 355.768 157.645 356.176C157.811 356.584 158.059 356.955 158.373 357.267C158.687 357.578 159.06 357.824 159.471 357.989C159.883 358.155 160.323 358.236 160.767 358.229Z" fill="black"/>
<path d="M3.36463 397.285C4.03 397.285 4.68043 397.089 5.23366 396.722C5.78689 396.356 6.2181 395.834 6.47273 395.224C6.72736 394.614 6.79395 393.942 6.66414 393.295C6.53433 392.647 6.21394 392.052 5.74345 391.585C5.27296 391.118 4.67354 390.8 4.02095 390.671C3.36837 390.542 2.69194 390.609 2.07722 390.861C1.4625 391.114 0.937105 391.542 0.567446 392.091C0.197787 392.64 0.000488281 393.286 0.000488281 393.946C0.000488281 394.832 0.354908 395.681 0.985811 396.307C1.61671 396.933 2.4724 397.285 3.36463 397.285Z" fill="black"/>
<path d="M42.5111 397.285C43.1765 397.285 43.8269 397.089 44.3802 396.722C44.9334 396.356 45.3646 395.834 45.6192 395.224C45.8739 394.614 45.9405 393.942 45.8107 393.295C45.6808 392.647 45.3605 392.052 44.89 391.585C44.4195 391.118 43.8201 390.8 43.1675 390.671C42.5149 390.542 41.8385 390.609 41.2237 390.861C40.609 391.114 40.0836 391.542 39.714 392.091C39.3443 392.64 39.147 393.286 39.147 393.946C39.147 394.832 39.5014 395.681 40.1323 396.307C40.7632 396.933 41.6189 397.285 42.5111 397.285Z" fill="black"/>
<path d="M82.0656 397.285C82.731 397.285 83.3814 397.089 83.9346 396.722C84.4879 396.356 84.919 395.834 85.1737 395.224C85.4283 394.614 85.4949 393.942 85.3651 393.295C85.2353 392.647 84.9149 392.052 84.4444 391.585C83.9739 391.118 83.3745 390.8 82.7219 390.671C82.0693 390.542 81.3929 390.609 80.7782 390.861C80.1635 391.114 79.638 391.542 79.2684 392.091C78.8987 392.64 78.7014 393.286 78.7014 393.946C78.7014 394.832 79.0559 395.681 79.6868 396.307C80.3177 396.933 81.1734 397.285 82.0656 397.285Z" fill="black"/>
<path d="M121.416 397.285C122.082 397.285 122.732 397.089 123.285 396.722C123.838 396.356 124.27 395.834 124.524 395.224C124.779 394.614 124.846 393.942 124.716 393.295C124.586 392.647 124.266 392.052 123.795 391.585C123.325 391.118 122.725 390.8 122.073 390.671C121.42 390.542 120.744 390.609 120.129 390.861C119.514 391.114 118.989 391.542 118.619 392.091C118.249 392.64 118.052 393.286 118.052 393.946C118.052 394.832 118.406 395.681 119.037 396.307C119.668 396.933 120.524 397.285 121.416 397.285Z" fill="black"/>
<path d="M160.767 397.285C161.432 397.285 162.083 397.089 162.636 396.722C163.189 396.355 163.62 395.834 163.875 395.224C164.13 394.614 164.196 393.942 164.066 393.295C163.937 392.647 163.616 392.052 163.146 391.585C162.675 391.118 162.076 390.8 161.423 390.671C160.771 390.542 160.094 390.609 159.479 390.861C158.865 391.114 158.339 391.542 157.97 392.091C157.6 392.64 157.403 393.286 157.403 393.946C157.396 394.387 157.478 394.824 157.645 395.232C157.811 395.64 158.059 396.011 158.373 396.322C158.687 396.634 159.06 396.879 159.471 397.045C159.883 397.21 160.323 397.292 160.767 397.285Z" fill="black"/>
<path d="M196.365 6.77871C197.044 6.78871 197.711 6.59717 198.281 6.2286C198.85 5.86003 199.296 5.33122 199.561 4.70984C199.825 4.08846 199.897 3.40279 199.767 2.7406C199.637 2.07842 199.311 1.46982 198.83 0.992763C198.349 0.515702 197.736 0.191873 197.069 0.0627035C196.402 -0.0664655 195.711 0.00491891 195.085 0.267713C194.459 0.530507 193.926 0.972759 193.555 1.53785C193.183 2.10295 192.99 2.76516 193 3.43975C193 4.3253 193.355 5.17458 193.986 5.80075C194.617 6.42693 195.472 6.77871 196.365 6.77871Z" fill="black"/>
<path d="M196.365 45.8344C197.044 45.8444 197.711 45.6529 198.281 45.2843C198.85 44.9157 199.296 44.3869 199.561 43.7655C199.825 43.1441 199.897 42.4585 199.767 41.7963C199.637 41.1341 199.311 40.5255 198.83 40.0484C198.349 39.5714 197.736 39.2475 197.069 39.1184C196.402 38.9892 195.711 39.0606 195.085 39.3234C194.459 39.5862 193.926 40.0284 193.555 40.5935C193.183 41.1586 192.99 41.8209 193 42.4954C193 43.381 193.355 44.2303 193.986 44.8564C194.617 45.4826 195.472 45.8344 196.365 45.8344Z" fill="black"/>
<path d="M196.365 84.8901C197.044 84.9001 197.711 84.7085 198.281 84.34C198.85 83.9714 199.296 83.4426 199.561 82.8212C199.825 82.1998 199.897 81.5142 199.767 80.852C199.637 80.1898 199.311 79.5812 198.83 79.1041C198.349 78.6271 197.736 78.3033 197.069 78.1741C196.402 78.0449 195.711 78.1163 195.085 78.3791C194.459 78.6419 193.926 79.0841 193.555 79.6492C193.183 80.2143 192.99 80.8765 193 81.5511C193 82.4367 193.355 83.2859 193.986 83.9121C194.617 84.5383 195.472 84.8901 196.365 84.8901Z" fill="black"/>
<path d="M196.365 123.946C197.042 123.956 197.707 123.766 198.276 123.399C198.844 123.033 199.29 122.507 199.556 121.889C199.822 121.27 199.897 120.587 199.771 119.927C199.645 119.266 199.324 118.657 198.848 118.178C198.373 117.699 197.765 117.371 197.101 117.236C196.437 117.101 195.748 117.165 195.121 117.42C194.494 117.675 193.957 118.11 193.58 118.668C193.202 119.226 193 119.884 193 120.556C192.994 120.999 193.076 121.439 193.242 121.85C193.408 122.261 193.654 122.635 193.968 122.95C194.281 123.265 194.654 123.516 195.065 123.687C195.477 123.858 195.918 123.946 196.365 123.946Z" fill="black"/>
<path d="M196.365 163.103C197.042 163.113 197.707 162.922 198.276 162.556C198.844 162.19 199.29 161.664 199.556 161.046C199.822 160.427 199.897 159.744 199.771 159.083C199.645 158.423 199.324 157.814 198.848 157.335C198.373 156.856 197.765 156.528 197.101 156.393C196.437 156.258 195.748 156.322 195.121 156.577C194.494 156.832 193.957 157.266 193.58 157.825C193.202 158.383 193 159.041 193 159.713C192.994 160.156 193.076 160.595 193.242 161.006C193.408 161.417 193.654 161.791 193.968 162.107C194.281 162.422 194.654 162.673 195.065 162.844C195.477 163.015 195.918 163.103 196.365 163.103Z" fill="black"/>
<path d="M196.365 202.057C197.042 202.067 197.707 201.877 198.276 201.511C198.844 201.144 199.29 200.619 199.556 200C199.822 199.382 199.897 198.699 199.771 198.038C199.645 197.377 199.324 196.768 198.848 196.289C198.373 195.81 197.765 195.482 197.101 195.347C196.437 195.212 195.748 195.277 195.121 195.532C194.494 195.787 193.957 196.221 193.58 196.779C193.202 197.338 193 197.995 193 198.668C192.994 199.11 193.076 199.55 193.242 199.961C193.408 200.372 193.654 200.746 193.968 201.061C194.281 201.377 194.654 201.627 195.065 201.798C195.477 201.969 195.918 202.057 196.365 202.057Z" fill="black"/>
<path d="M196.365 241.113C197.042 241.123 197.707 240.933 198.276 240.566C198.844 240.2 199.29 239.674 199.556 239.056C199.822 238.437 199.897 237.754 199.771 237.094C199.645 236.433 199.324 235.824 198.848 235.345C198.373 234.866 197.765 234.538 197.101 234.403C196.437 234.268 195.748 234.332 195.121 234.587C194.494 234.842 193.957 235.277 193.58 235.835C193.202 236.393 193 237.051 193 237.723C192.994 238.166 193.076 238.606 193.242 239.017C193.408 239.428 193.654 239.802 193.968 240.117C194.281 240.433 194.654 240.683 195.065 240.854C195.477 241.025 195.918 241.113 196.365 241.113Z" fill="black"/>
<path d="M196.365 280.118C197.03 280.118 197.68 279.922 198.234 279.555C198.787 279.188 199.218 278.667 199.473 278.057C199.727 277.447 199.794 276.775 199.664 276.128C199.534 275.48 199.214 274.885 198.743 274.418C198.273 273.951 197.673 273.633 197.021 273.504C196.368 273.375 195.692 273.442 195.077 273.694C194.462 273.947 193.937 274.375 193.567 274.924C193.198 275.473 193 276.119 193 276.779C192.994 277.219 193.076 277.657 193.242 278.065C193.409 278.473 193.657 278.844 193.97 279.155C194.284 279.467 194.658 279.712 195.069 279.878C195.48 280.043 195.921 280.125 196.365 280.118Z" fill="black"/>
<path d="M196.365 319.174C197.03 319.174 197.68 318.978 198.234 318.611C198.787 318.244 199.218 317.723 199.473 317.113C199.727 316.502 199.794 315.831 199.664 315.183C199.534 314.536 199.214 313.941 198.743 313.474C198.273 313.007 197.673 312.689 197.021 312.56C196.368 312.431 195.692 312.497 195.077 312.75C194.462 313.003 193.937 313.431 193.567 313.98C193.198 314.529 193 315.174 193 315.835C192.994 316.275 193.076 316.712 193.242 317.121C193.409 317.529 193.657 317.9 193.97 318.211C194.284 318.522 194.658 318.768 195.069 318.933C195.48 319.099 195.921 319.181 196.365 319.174Z" fill="black"/>
<path d="M196.365 358.229C197.03 358.229 197.68 358.034 198.234 357.667C198.787 357.3 199.218 356.778 199.473 356.168C199.727 355.558 199.794 354.887 199.664 354.239C199.534 353.591 199.214 352.996 198.743 352.529C198.273 352.063 197.673 351.745 197.021 351.616C196.368 351.487 195.692 351.553 195.077 351.806C194.462 352.058 193.937 352.486 193.567 353.035C193.198 353.585 193 354.23 193 354.891C192.994 355.331 193.076 355.768 193.242 356.176C193.409 356.584 193.657 356.955 193.97 357.267C194.284 357.578 194.658 357.824 195.069 357.989C195.48 358.155 195.921 358.236 196.365 358.229Z" fill="black"/>
<path d="M196.365 397.285C197.03 397.285 197.68 397.089 198.234 396.722C198.787 396.355 199.218 395.834 199.473 395.224C199.727 394.614 199.794 393.942 199.664 393.295C199.534 392.647 199.214 392.052 198.743 391.585C198.273 391.118 197.673 390.8 197.021 390.671C196.368 390.542 195.692 390.609 195.077 390.861C194.462 391.114 193.937 391.542 193.567 392.091C193.198 392.64 193 393.286 193 393.946C192.994 394.387 193.076 394.824 193.242 395.232C193.409 395.64 193.657 396.011 193.97 396.322C194.284 396.634 194.658 396.879 195.069 397.045C195.48 397.21 195.921 397.292 196.365 397.285Z" fill="black"/>
</svg>
