<svg width="12" height="12" viewBox="0 0 12 12" fill="none" xmlns="http://www.w3.org/2000/svg">
    <path fillRule="evenodd" clipRule="evenodd" d="M7.74996 0.166748C8.71646 0.166748 9.49996 0.95025 9.49996 1.91675V10.0834C9.49996 11.0499 8.71646 11.8334 7.74996 11.8334H4.24996C3.28346 11.8334 2.49996 11.0499 2.49996 10.0834V1.91675C2.49996 0.95025 3.28346 0.166748 4.24996 0.166748H7.74996ZM0.749959 0.166748C1.07213 0.166748 1.33329 0.427915 1.33329 0.750081V11.2501C1.33329 11.5722 1.07213 11.8334 0.749959 11.8334C0.427793 11.8334 0.166626 11.5722 0.166626 11.2501V0.750081C0.166626 0.427915 0.427793 0.166748 0.749959 0.166748ZM11.25 0.166748C11.5721 0.166748 11.8333 0.427915 11.8333 0.750081V11.2501C11.8333 11.5722 11.5721 11.8334 11.25 11.8334C10.9278 11.8334 10.6666 11.5722 10.6666 11.2501V0.750081C10.6666 0.427915 10.9278 0.166748 11.25 0.166748ZM7.74996 1.33341H4.24996C3.92779 1.33341 3.66663 1.59458 3.66663 1.91675V10.0834C3.66663 10.4056 3.92779 10.6667 4.24996 10.6667H7.74996C8.07213 10.6667 8.33329 10.4056 8.33329 10.0834V1.91675C8.33329 1.59458 8.07213 1.33341 7.74996 1.33341Z" fill="#CF203C"/>
</svg>
