<svg width="200" height="26" viewBox="0 0 200 26" fill="none" xmlns="http://www.w3.org/2000/svg">
<path d="M141.69 12.7487C141.69 15.2702 140.937 17.735 139.525 19.8316C138.114 21.9281 136.108 23.5621 133.761 24.527C131.413 25.4919 128.831 25.7444 126.339 25.2525C123.848 24.7606 121.559 23.5464 119.762 21.7634C117.966 19.9805 116.742 17.7089 116.247 15.2359C115.751 12.7629 116.006 10.1995 116.978 7.86997C117.95 5.54045 119.596 3.5494 121.709 2.14855C123.821 0.747706 126.305 0 128.845 0C130.532 0 132.202 0.329728 133.761 0.970411C135.319 1.61109 136.735 2.55022 137.928 3.73405C139.121 4.91788 140.067 6.32323 140.712 7.86997C141.358 9.41672 141.69 11.0746 141.69 12.7487Z" fill="#5A0000"/>
<path d="M186.845 25.4974C193.939 25.4974 199.69 19.7897 199.69 12.7488C199.69 5.70782 193.939 0 186.845 0C179.751 0 174 5.70782 174 12.7488C174 19.7897 179.751 25.4974 186.845 25.4974Z" fill="#5A0000"/>
<path d="M25.6901 12.7487C25.6901 15.2702 24.9366 17.735 23.5252 19.8316C22.1138 21.9281 20.1076 23.5621 17.7605 24.527C15.4134 25.4919 12.8309 25.7444 10.3392 25.2525C7.84751 24.7606 5.55875 23.5464 3.76235 21.7634C1.96595 19.9805 0.742444 17.7089 0.246818 15.2359C-0.248807 12.7629 0.00556403 10.1995 0.977768 7.86997C1.94997 5.54045 3.59646 3.5494 5.7088 2.14855C7.82114 0.747706 10.3045 0 12.845 0C14.5318 0 16.2021 0.329728 17.7605 0.970411C19.3189 1.61109 20.7351 2.55022 21.9278 3.73405C23.1206 4.91788 24.0667 6.32323 24.7122 7.86997C25.3578 9.41672 25.6901 11.0746 25.6901 12.7487Z" fill="#5A0000"/>
<path d="M70.8451 25.4974C77.9392 25.4974 83.6901 19.7897 83.6901 12.7488C83.6901 5.70782 77.9392 0 70.8451 0C63.751 0 58 5.70782 58 12.7488C58 19.7897 63.751 25.4974 70.8451 25.4974Z" fill="#5A0000"/>
</svg>
