<svg width="15" height="14" viewBox="0 0 15 14" fill="none" xmlns="http://www.w3.org/2000/svg">
<path d="M14.9621 5.07002C14.9172 4.93151 14.8326 4.80922 14.7188 4.71838C14.605 4.62753 14.4671 4.57212 14.3221 4.55902L10.2811 4.19202L8.68105 0.452019C8.62374 0.318094 8.52838 0.203942 8.40678 0.123718C8.28519 0.0434947 8.14273 0.000732422 7.99706 0.000732422C7.85138 0.000732422 7.70892 0.0434947 7.58733 0.123718C7.46573 0.203942 7.37037 0.318094 7.31306 0.452019L5.71306 4.19102L1.67206 4.55802C1.52743 4.57172 1.38996 4.6274 1.27657 4.71822C1.16319 4.80904 1.07883 4.93104 1.03387 5.06918C0.988924 5.20733 0.985343 5.3556 1.02358 5.49576C1.06181 5.63591 1.14018 5.76183 1.24905 5.85802L4.30405 8.53702L3.40405 12.504C3.3722 12.6459 3.38268 12.794 3.43419 12.93C3.4857 13.0659 3.57597 13.1838 3.69382 13.269C3.81167 13.3541 3.95191 13.4029 4.09718 13.4091C4.24244 13.4153 4.38635 13.3788 4.51106 13.304L7.99506 11.221L11.4791 13.304C11.6038 13.3783 11.7476 13.4144 11.8927 13.408C12.0377 13.4015 12.1777 13.3528 12.2954 13.2677C12.4131 13.1827 12.5033 13.0651 12.555 12.9294C12.6066 12.7936 12.6174 12.6458 12.5861 12.504L11.6861 8.53702L14.7411 5.85802C14.8511 5.76238 14.9304 5.63642 14.9692 5.4959C15.008 5.35537 15.0045 5.20654 14.9591 5.06802L14.9621 5.07002Z" fill="url(#paint0_linear_2_356)"/>
<defs>
<linearGradient id="paint0_linear_2_356" x1="7.99661" y1="0.000732422" x2="7.99661" y2="13.4098" gradientUnits="userSpaceOnUse">
<stop stop-color="#FA5368"/>
<stop offset="1" stop-color="#CF203C"/>
</linearGradient>
</defs>
</svg>
