<svg width="731" height="337" viewBox="0 0 731 337" fill="none" xmlns="http://www.w3.org/2000/svg">
<path d="M743.43 234.118C757.859 211.337 765.873 185.135 766.638 158.237C767.403 131.339 760.89 104.729 747.779 81.1766C734.667 57.6242 715.435 37.9898 692.084 24.317C668.733 10.6441 642.117 3.43243 615.005 3.43243C587.893 3.43243 561.277 10.6441 537.926 24.317C514.575 37.9898 495.343 57.6242 482.231 81.1766C469.119 104.729 462.607 131.339 463.372 158.237C464.137 185.135 472.151 211.337 486.58 234.118H743.43Z" fill="#1D1D1D"/>
<g opacity="0.7">
<path opacity="0.7" d="M490.811 234.118C476.244 211.901 467.99 186.192 466.922 159.705C465.854 133.218 472.012 106.937 484.744 83.6349C497.477 60.3331 516.312 40.8758 539.262 27.3169C562.212 13.7581 588.425 6.60092 615.133 6.60092C641.841 6.60092 668.053 13.7581 691.003 27.3169C713.953 40.8758 732.788 60.3331 745.521 83.6349C758.254 106.937 764.411 133.218 763.343 159.705C762.275 186.192 754.022 211.901 739.454 234.118H747.457C761.815 210.789 769.652 184.085 770.164 156.752C770.675 129.42 763.841 102.445 750.366 78.6031C736.89 54.7609 717.259 34.9117 693.491 21.0968C669.723 7.28194 642.676 0 615.133 0C587.589 0 560.542 7.28194 536.775 21.0968C513.007 34.9117 493.375 54.7609 479.9 78.6031C466.424 102.445 459.591 129.42 460.102 156.752C460.613 184.085 468.451 210.789 482.809 234.118H490.811Z" fill="white"/>
<path opacity="0.7" d="M529.347 234.118C513.538 217.469 502.986 196.59 498.993 174.058C495 151.527 497.741 128.328 506.877 107.324C516.012 86.3197 531.144 68.4297 550.404 55.861C569.664 43.2922 592.21 36.5947 615.26 36.5947C638.311 36.5947 660.857 43.2922 680.117 55.861C699.377 68.4297 714.508 86.3197 723.644 107.324C732.78 128.328 735.52 151.527 731.527 174.058C727.534 196.59 716.983 217.469 701.174 234.118H710.196C725.648 216.121 735.583 194.109 738.827 170.684C742.072 147.259 738.489 123.403 728.503 101.935C718.517 80.4678 702.545 62.2879 682.477 49.5457C662.409 36.8034 639.084 30.0318 615.26 30.0318C591.437 30.0318 568.112 36.8034 548.044 49.5457C527.976 62.2879 512.004 80.4678 502.018 101.935C492.032 123.403 488.449 147.259 491.693 170.684C494.937 194.109 504.873 216.121 520.325 234.118H529.347Z" fill="white"/>
<path opacity="0.7" d="M566.301 234.118H581.032C562.388 226.313 547.039 212.347 537.587 194.589C528.135 176.832 525.164 156.376 529.175 136.692C533.187 117.008 543.936 99.3065 559.598 86.5911C575.261 73.8757 594.872 66.9289 615.107 66.9289C635.342 66.9289 654.954 73.8757 670.616 86.5911C686.278 99.3065 697.027 117.008 701.039 136.692C705.051 156.376 702.079 176.832 692.627 194.589C683.175 212.347 667.826 226.313 649.182 234.118H663.913C681.564 223.537 695.239 207.51 702.847 188.487C710.456 169.465 711.579 148.493 706.045 128.777C700.512 109.061 688.626 91.6852 672.204 79.3063C655.782 66.9273 635.728 60.2256 615.107 60.2256C594.486 60.2256 574.432 66.9273 558.01 79.3063C541.589 91.6852 529.703 109.061 524.169 128.777C518.635 148.493 519.758 169.465 527.367 188.487C534.975 207.51 548.65 223.537 566.301 234.118Z" fill="white"/>
<path opacity="0.7" d="M615.133 217.626C602.456 217.636 590.062 213.914 579.517 206.93C568.973 199.946 560.753 190.015 555.897 178.393C551.041 166.771 549.768 153.981 552.238 141.64C554.709 129.3 560.812 117.964 569.776 109.068C578.74 100.171 590.161 94.1135 602.594 91.6614C615.028 89.2093 627.915 90.4729 639.625 95.2923C651.334 100.112 661.34 108.27 668.377 118.736C675.413 129.201 679.164 141.503 679.154 154.084C679.127 170.929 672.373 187.075 660.373 198.986C648.372 210.896 632.104 217.599 615.133 217.626ZM615.133 97.2211C603.801 97.2211 592.724 100.556 583.303 106.804C573.881 113.052 566.538 121.933 562.201 132.324C557.865 142.714 556.73 154.148 558.941 165.178C561.152 176.208 566.608 186.341 574.621 194.293C582.633 202.246 592.842 207.661 603.956 209.855C615.069 212.049 626.589 210.923 637.058 206.62C647.527 202.316 656.474 195.027 662.77 185.676C669.065 176.325 672.425 165.331 672.425 154.084C672.399 139.012 666.354 124.564 655.615 113.906C644.876 103.247 630.319 97.2478 615.133 97.2211Z" fill="white"/>
<path opacity="0.7" d="M615.133 187.525C608.469 187.525 601.955 185.563 596.414 181.889C590.873 178.214 586.555 172.992 584.005 166.881C581.455 160.771 580.787 154.047 582.087 147.561C583.387 141.074 586.596 135.115 591.308 130.439C596.02 125.762 602.024 122.577 608.56 121.287C615.095 119.997 621.87 120.659 628.026 123.19C634.183 125.721 639.445 130.007 643.147 135.506C646.849 141.005 648.825 147.471 648.825 154.084C648.825 162.953 645.276 171.459 638.957 177.73C632.638 184.001 624.069 187.525 615.133 187.525ZM615.133 127.322C609.8 127.322 604.586 128.892 600.152 131.832C595.718 134.773 592.262 138.953 590.221 143.843C588.18 148.733 587.646 154.114 588.686 159.305C589.727 164.497 592.295 169.265 596.066 173.008C599.837 176.751 604.642 179.3 609.872 180.332C615.103 181.365 620.524 180.835 625.452 178.81C630.379 176.784 634.59 173.354 637.553 168.953C640.516 164.552 642.097 159.378 642.097 154.084C642.097 146.987 639.256 140.18 634.199 135.161C629.143 130.142 622.284 127.322 615.133 127.322Z" fill="white"/>
</g>
<path d="M590.513 304.945C604.943 282.164 612.957 255.961 613.722 229.063C614.487 202.165 607.974 175.555 594.863 152.003C581.751 128.451 562.519 108.816 539.168 95.1433C515.817 81.4705 489.201 74.2588 462.089 74.2588C434.977 74.2588 408.361 81.4705 385.01 95.1433C361.659 108.816 342.427 128.451 329.315 152.003C316.203 175.555 309.691 202.165 310.456 229.063C311.221 255.961 319.235 282.164 333.664 304.945H590.513Z" fill="#1D1D1D"/>
<g opacity="0.7">
<path opacity="0.7" d="M337.844 304.945C323.276 282.727 315.022 257.018 313.954 230.531C312.887 204.045 319.044 177.763 331.777 154.461C344.509 131.16 363.345 111.702 386.295 98.1434C409.244 84.5845 435.457 77.4273 462.165 77.4273C488.873 77.4273 515.086 84.5845 538.035 98.1434C560.985 111.702 579.821 131.16 592.553 154.461C605.286 177.763 611.443 204.045 610.376 230.531C609.308 257.018 601.054 282.727 586.486 304.945H594.438C608.805 281.616 616.652 254.91 617.17 227.574C617.687 200.237 610.858 173.257 597.384 149.409C583.91 125.561 564.279 105.707 540.508 91.888C516.738 78.0691 489.687 70.785 462.14 70.785C434.592 70.785 407.541 78.0691 383.771 91.888C360 105.707 340.369 125.561 326.895 149.409C313.421 173.257 306.592 200.237 307.109 227.574C307.627 254.91 315.474 281.616 329.841 304.945H337.844Z" fill="white"/>
<path opacity="0.7" d="M376.43 304.945C360.639 288.299 350.102 267.429 346.12 244.91C342.137 222.391 344.882 199.208 354.017 178.219C363.152 157.231 378.277 139.355 397.526 126.796C416.776 114.238 439.308 107.546 462.343 107.546C485.379 107.546 507.911 114.238 527.161 126.796C546.41 139.355 561.535 157.231 570.67 178.219C579.804 199.208 582.55 222.391 578.567 244.91C574.584 267.429 564.048 288.299 548.257 304.945H557.279C572.731 286.948 582.666 264.935 585.91 241.51C589.155 218.086 585.572 194.229 575.586 172.762C565.6 151.294 549.628 133.114 529.56 120.372C509.492 107.63 486.167 100.858 462.343 100.858C438.52 100.858 415.195 107.63 395.127 120.372C375.059 133.114 359.087 151.294 349.101 172.762C339.115 194.229 335.532 218.086 338.776 241.51C342.02 264.935 351.956 286.948 367.408 304.945H376.43Z" fill="white"/>
<path opacity="0.7" d="M413.334 304.945H428.065C409.421 297.139 394.072 283.173 384.62 265.416C375.168 247.658 372.196 227.203 376.208 207.518C380.22 187.834 390.969 170.133 406.631 157.418C422.293 144.702 441.905 137.755 462.14 137.755C482.374 137.755 501.986 144.702 517.648 157.418C533.311 170.133 544.06 187.834 548.071 207.518C552.083 227.203 549.111 247.658 539.66 265.416C530.208 283.173 514.858 297.139 496.215 304.945H510.946C528.597 294.363 542.272 278.336 549.88 259.314C557.488 240.291 558.612 219.319 553.078 199.603C547.544 179.887 535.658 162.512 519.237 150.133C502.815 137.754 482.761 131.052 462.14 131.052C441.519 131.052 421.465 137.754 405.043 150.133C388.621 162.512 376.735 179.887 371.202 199.603C365.668 219.319 366.791 240.291 374.399 259.314C382.008 278.336 395.683 294.363 413.334 304.945Z" fill="white"/>
<path opacity="0.7" d="M462.165 288.25C449.503 288.25 437.125 284.523 426.596 277.541C416.068 270.559 407.863 260.635 403.017 249.025C398.171 237.414 396.903 224.638 399.374 212.312C401.844 199.986 407.941 188.664 416.895 179.778C425.848 170.892 437.256 164.84 449.675 162.388C462.094 159.936 474.966 161.195 486.665 166.004C498.363 170.813 508.362 178.957 515.396 189.407C522.431 199.856 526.186 212.141 526.186 224.708C526.159 241.552 519.405 257.699 507.405 269.61C495.404 281.52 479.136 288.223 462.165 288.25ZM462.165 167.845C450.833 167.845 439.756 171.18 430.335 177.428C420.913 183.676 413.569 192.557 409.233 202.948C404.897 213.338 403.762 224.772 405.973 235.802C408.183 246.832 413.64 256.965 421.653 264.917C429.665 272.87 439.874 278.285 450.987 280.479C462.101 282.673 473.621 281.547 484.09 277.243C494.559 272.94 503.507 265.651 509.802 256.3C516.097 246.949 519.458 235.955 519.458 224.708C519.431 209.636 513.386 195.188 502.647 184.53C491.908 173.871 477.351 167.872 462.165 167.845Z" fill="white"/>
<path opacity="0.7" d="M462.165 258.149C455.501 258.149 448.987 256.188 443.446 252.513C437.905 248.839 433.587 243.616 431.037 237.506C428.487 231.395 427.82 224.671 429.12 218.185C430.42 211.698 433.629 205.739 438.341 201.063C443.053 196.386 449.056 193.201 455.592 191.911C462.128 190.621 468.902 191.283 475.058 193.814C481.215 196.345 486.477 200.631 490.179 206.13C493.881 211.629 495.857 218.095 495.857 224.709C495.844 233.573 492.29 242.071 485.974 248.34C479.659 254.608 471.097 258.135 462.165 258.149ZM462.165 197.946C456.832 197.946 451.619 199.516 447.184 202.457C442.75 205.397 439.294 209.577 437.253 214.467C435.212 219.357 434.678 224.738 435.719 229.93C436.759 235.121 439.327 239.89 443.098 243.632C446.869 247.375 451.674 249.924 456.904 250.957C462.135 251.989 467.557 251.459 472.484 249.434C477.411 247.408 481.622 243.978 484.585 239.577C487.548 235.176 489.129 230.002 489.129 224.709C489.116 217.615 486.271 210.816 481.217 205.8C476.163 200.784 469.312 197.96 462.165 197.946Z" fill="white"/>
</g>
<path d="M898.284 304.945C912.743 282.159 920.783 255.942 921.566 229.025C922.348 202.108 915.845 175.475 902.734 151.899C889.623 128.324 870.382 108.669 847.017 94.9808C823.652 81.2929 797.016 74.0729 769.885 74.0729C742.753 74.0729 716.117 81.2929 692.752 94.9808C669.387 108.669 650.146 128.324 637.035 151.899C623.924 175.475 617.421 202.108 618.203 229.025C618.986 255.942 627.026 282.159 641.485 304.945H898.284Z" fill="#1D1D1D"/>
<g opacity="0.7">
<path opacity="0.7" d="M645.513 304.945C630.945 282.727 622.691 257.018 621.623 230.531C620.555 204.045 626.713 177.763 639.445 154.461C652.178 131.16 671.014 111.702 693.963 98.1434C716.913 84.5845 743.126 77.4273 769.834 77.4273C796.542 77.4273 822.755 84.5845 845.704 98.1434C868.654 111.702 887.49 131.16 900.222 154.461C912.955 177.763 919.112 204.045 918.044 230.531C916.977 257.018 908.723 282.727 894.155 304.945H902.158C916.516 281.615 924.353 254.911 924.865 227.579C925.376 200.246 918.542 173.272 905.067 149.429C891.591 125.587 871.96 105.738 848.192 91.9232C824.424 78.1084 797.378 70.8264 769.834 70.8264C742.29 70.8264 715.244 78.1084 691.476 91.9232C667.708 105.738 648.077 125.587 634.601 149.429C621.125 173.272 614.292 200.246 614.803 227.579C615.314 254.911 623.152 281.615 637.51 304.945H645.513Z" fill="white"/>
<path opacity="0.7" d="M683.945 304.945C668.125 288.309 657.559 267.439 653.553 244.912C649.546 222.384 652.275 199.186 661.401 178.18C670.528 157.174 685.653 139.281 704.909 126.709C724.165 114.137 746.709 107.438 769.757 107.438C792.805 107.438 815.349 114.137 834.605 126.709C853.861 139.281 868.986 157.174 878.113 178.18C887.239 199.186 889.968 222.384 885.961 244.912C881.955 267.439 871.389 288.309 855.569 304.945H864.591C880.061 286.944 890.012 264.922 893.267 241.484C896.521 218.045 892.944 194.173 882.956 172.689C872.969 151.206 856.991 133.012 836.912 120.259C816.833 107.507 793.493 100.73 769.655 100.73C745.817 100.73 722.477 107.507 702.398 120.259C682.319 133.012 666.341 151.206 656.354 172.689C646.367 194.173 642.789 218.045 646.044 241.484C649.298 264.922 659.249 286.944 674.719 304.945H683.945Z" fill="white"/>
<path opacity="0.7" d="M721.053 304.945H735.784C717.14 297.139 701.791 283.173 692.339 265.416C682.887 247.658 679.915 227.203 683.927 207.518C687.939 187.834 698.688 170.133 714.35 157.418C730.013 144.702 749.624 137.755 769.859 137.755C790.094 137.755 809.706 144.702 825.368 157.418C841.03 170.133 851.779 187.834 855.791 207.518C859.803 227.203 856.831 247.658 847.379 265.416C837.927 283.173 822.578 297.139 803.934 304.945H818.665C836.316 294.363 849.991 278.336 857.6 259.314C865.208 240.291 866.331 219.319 860.797 199.603C855.264 179.887 843.378 162.512 826.956 150.133C810.534 137.754 790.48 131.052 769.859 131.052C749.238 131.052 729.184 137.754 712.762 150.133C696.34 162.512 684.455 179.887 678.921 199.603C673.387 219.319 674.51 240.291 682.119 259.314C689.727 278.336 703.402 294.363 721.053 304.945Z" fill="white"/>
<path opacity="0.7" d="M769.834 288.25C757.174 288.24 744.801 284.505 734.28 277.517C723.758 270.529 715.56 260.601 710.722 248.99C705.885 237.378 704.624 224.604 707.1 212.281C709.576 199.959 715.678 188.641 724.633 179.76C733.589 170.879 744.996 164.832 757.414 162.384C769.831 159.937 782.701 161.198 794.396 166.009C806.092 170.82 816.088 178.964 823.12 189.412C830.152 199.86 833.906 212.143 833.906 224.708C833.879 241.561 827.118 257.715 815.107 269.627C803.095 281.539 786.814 288.237 769.834 288.25ZM769.834 167.845C758.505 167.855 747.433 171.198 738.018 177.453C728.603 183.707 721.267 192.592 716.939 202.983C712.61 213.374 711.483 224.806 713.699 235.833C715.916 246.86 721.376 256.987 729.391 264.935C737.405 272.882 747.614 278.293 758.726 280.483C769.839 282.673 781.356 281.544 791.822 277.239C802.288 272.933 811.232 265.645 817.526 256.295C823.819 246.945 827.178 235.953 827.178 224.708C827.164 209.623 821.117 195.159 810.364 184.497C799.612 173.834 785.034 167.845 769.834 167.845Z" fill="white"/>
</g>
<path d="M447.791 367.019C457.324 344.146 461.028 319.292 458.575 294.659C456.122 270.026 447.587 246.373 433.726 225.795C419.865 205.216 401.106 188.347 379.109 176.681C357.113 165.015 332.557 158.912 307.617 158.912C282.677 158.912 258.122 165.015 236.125 176.681C214.129 188.347 195.369 205.216 181.509 225.795C167.648 246.373 159.113 270.026 156.66 294.659C154.206 319.292 157.91 344.146 167.444 367.019H447.791Z" fill="#1D1D1D"/>
<g opacity="0.7">
<path opacity="0.7" d="M170.909 367.019C161.319 344.632 157.468 320.236 159.7 296.011C161.932 271.786 170.178 248.487 183.699 228.198C197.221 207.909 215.598 191.261 237.187 179.744C258.776 168.227 282.903 162.199 307.413 162.199C331.923 162.199 356.051 168.227 377.639 179.744C399.228 191.261 417.605 207.909 431.127 228.198C444.649 248.487 452.894 271.786 455.126 296.011C457.358 320.236 453.507 344.632 443.917 367.019H451.257C460.767 343.651 464.352 318.324 461.697 293.26C459.041 268.196 450.226 244.163 436.026 223.27C421.826 202.377 402.676 185.263 380.255 173.432C357.835 161.601 332.831 155.413 307.439 155.413C282.046 155.413 257.042 161.601 234.622 173.432C212.202 185.263 193.051 202.377 178.851 223.27C164.651 244.163 155.836 268.196 153.181 293.26C150.525 318.324 154.11 343.651 163.62 367.019H170.909Z" fill="white"/>
<path opacity="0.7" d="M204.704 367.019C194.55 349.201 189.278 329.053 189.415 308.583C189.552 288.113 195.092 268.036 205.483 250.353C215.875 232.671 230.754 218 248.639 207.804C266.523 197.608 286.788 192.243 307.413 192.243C328.038 192.243 348.303 197.608 366.188 207.804C384.072 218 398.952 232.671 409.343 250.353C419.734 268.036 425.275 288.113 425.411 308.583C425.548 329.053 420.276 349.201 410.122 367.019H417.819C427.811 348.152 432.726 327.044 432.087 305.739C431.448 284.434 425.278 263.654 414.174 245.41C403.07 227.166 387.408 212.077 368.704 201.603C350 191.129 328.889 185.626 307.413 185.626C285.938 185.626 264.826 191.129 246.122 201.603C227.419 212.077 211.756 227.166 200.652 245.41C189.548 263.654 183.378 284.434 182.739 305.739C182.101 327.044 187.015 348.152 197.007 367.019H204.704Z" fill="white"/>
<path opacity="0.7" d="M241.557 367.019C230.428 354.45 223.186 338.963 220.7 322.413C218.213 305.863 220.587 288.953 227.537 273.708C234.487 258.463 245.719 245.53 259.885 236.459C274.052 227.388 290.554 222.563 307.413 222.563C324.272 222.563 340.774 227.388 354.941 236.459C369.108 245.53 380.339 258.463 387.289 273.708C394.239 288.953 396.613 305.863 394.127 322.413C391.64 338.963 384.398 354.45 373.269 367.019H381.985C394.841 350.747 401.855 330.682 401.916 310.004C401.945 295.085 398.384 280.375 391.529 267.097C384.674 253.82 374.724 242.359 362.506 233.668C350.288 224.977 336.156 219.308 321.285 217.132C306.414 214.956 291.234 216.336 277.009 221.157C262.784 225.978 249.925 234.101 239.501 244.85C229.077 255.599 221.39 268.663 217.079 282.956C212.769 297.248 211.96 312.356 214.719 327.022C217.478 341.687 223.726 355.487 232.943 367.272L241.557 367.019Z" fill="white"/>
<path opacity="0.7" d="M279.888 367.019H334.989C348.115 360.814 358.725 350.363 365.075 337.383C371.426 324.402 373.139 309.664 369.935 295.589C366.73 281.514 358.798 268.94 347.441 259.931C336.084 250.922 321.977 246.014 307.438 246.014C292.9 246.014 278.793 250.922 267.436 259.931C256.079 268.94 248.147 281.514 244.942 295.589C241.737 309.664 243.451 324.402 249.802 337.383C256.152 350.363 266.762 360.814 279.888 367.019ZM307.413 252.887C318.734 252.888 329.8 256.216 339.217 262.453C348.633 268.69 355.976 277.556 360.32 287.932C364.664 298.308 365.813 309.728 363.623 320.752C361.433 331.775 356.001 341.907 348.014 349.87C340.027 357.832 329.842 363.268 318.746 365.491C307.649 367.713 296.137 366.623 285.664 362.358C275.191 358.093 266.225 350.844 259.899 341.526C253.573 332.208 250.17 321.239 250.12 310.004C250.093 302.517 251.555 295.098 254.422 288.173C257.288 281.248 261.503 274.952 266.825 269.646C272.148 264.341 278.472 260.129 285.437 257.254C292.402 254.378 299.87 252.894 307.413 252.887Z" fill="white"/>
<path opacity="0.7" d="M307.413 343.191C300.749 343.191 294.235 341.23 288.694 337.555C283.154 333.881 278.835 328.658 276.285 322.548C273.735 316.437 273.068 309.714 274.368 303.227C275.668 296.74 278.877 290.782 283.589 286.105C288.301 281.428 294.304 278.243 300.84 276.953C307.376 275.663 314.15 276.325 320.307 278.856C326.463 281.387 331.725 285.673 335.427 291.172C339.13 296.672 341.106 303.137 341.106 309.751C341.092 318.616 337.538 327.113 331.222 333.382C324.907 339.65 316.345 343.178 307.413 343.191ZM307.413 282.988C302.08 282.988 296.867 284.558 292.432 287.499C287.998 290.439 284.542 294.619 282.501 299.509C280.46 304.399 279.926 309.78 280.967 314.972C282.007 320.163 284.575 324.932 288.346 328.675C292.117 332.417 296.922 334.966 302.152 335.999C307.383 337.031 312.805 336.501 317.732 334.476C322.659 332.45 326.87 329.02 329.833 324.619C332.796 320.218 334.377 315.044 334.377 309.751C334.377 302.653 331.536 295.846 326.48 290.827C321.423 285.808 314.564 282.988 307.413 282.988Z" fill="white"/>
</g>
<path d="M755.357 367.019C764.89 344.146 768.594 319.292 766.141 294.659C763.688 270.026 755.153 246.373 741.292 225.795C727.431 205.216 708.672 188.347 686.676 176.681C664.679 165.015 640.124 158.912 615.184 158.912C590.243 158.912 565.688 165.015 543.692 176.681C521.695 188.347 502.936 205.216 489.075 225.795C475.214 246.373 466.679 270.026 464.226 294.659C461.773 319.292 465.477 344.146 475.01 367.019H755.357Z" fill="#1D1D1D"/>
<g opacity="0.7">
<path opacity="0.7" d="M478.629 367.019C469.039 344.632 465.188 320.236 467.42 296.011C469.652 271.786 477.897 248.487 491.419 228.198C504.941 207.909 523.318 191.261 544.906 179.744C566.495 168.227 590.623 162.199 615.133 162.199C639.642 162.199 663.77 168.227 685.359 179.744C706.948 191.261 725.325 207.909 738.846 228.198C752.368 248.487 760.614 271.786 762.846 296.011C765.078 320.236 761.226 344.632 751.636 367.019H758.721C768.206 343.661 771.77 318.35 769.101 293.307C766.432 268.263 757.611 244.253 743.413 223.381C729.216 202.51 710.074 185.415 687.668 173.597C665.262 161.779 640.277 155.599 614.903 155.599C589.53 155.599 564.544 161.779 542.138 173.597C519.733 185.415 500.591 202.51 486.393 223.381C472.195 244.253 463.375 268.263 460.706 293.307C458.037 318.35 461.601 343.661 471.085 367.019H478.629Z" fill="white"/>
<path opacity="0.7" d="M512.423 367.019C502.4 349.572 497.13 329.835 497.132 309.751C497.099 291.83 501.21 274.141 509.149 258.045C517.088 241.95 528.643 227.877 542.923 216.911C557.204 205.944 573.83 198.377 591.521 194.791C609.212 191.205 627.496 191.697 644.965 196.227C662.435 200.758 678.624 209.207 692.286 220.925C705.947 232.642 716.718 247.315 723.767 263.813C730.817 280.312 733.958 298.196 732.948 316.088C731.939 333.981 726.805 351.405 717.943 367.019H725.589C734.948 349.449 739.847 329.878 739.861 310.004C739.912 291.209 735.65 272.649 727.398 255.732C719.146 238.815 707.122 223.985 692.236 212.366C677.351 200.748 659.995 192.646 641.486 188.674C622.976 184.703 603.799 184.968 585.407 189.447C567.016 193.926 549.893 202.503 535.338 214.527C520.784 226.551 509.178 241.707 501.403 258.845C493.627 275.982 489.886 294.652 490.462 313.439C491.037 332.225 495.916 350.635 504.727 367.272L512.423 367.019Z" fill="white"/>
<path opacity="0.7" d="M549.277 367.019C538.166 354.454 530.939 338.976 528.463 322.439C525.987 305.903 528.366 289.008 535.315 273.779C542.264 258.55 553.489 245.631 567.645 236.57C581.801 227.51 598.288 222.691 615.133 222.691C631.977 222.691 648.464 227.51 662.621 236.57C676.777 245.631 688.001 258.55 694.95 273.779C701.899 289.008 704.278 305.903 701.802 322.439C699.326 338.976 692.1 354.454 680.989 367.019H689.705C700.528 353.168 707.218 336.581 709.017 319.144C710.815 301.707 707.65 284.119 699.879 268.378C692.109 252.638 680.045 239.376 665.06 230.101C650.074 220.826 632.768 215.909 615.107 215.909C597.447 215.909 580.14 220.826 565.155 230.101C550.169 239.376 538.106 252.638 530.335 268.378C522.565 284.119 519.399 301.707 521.197 319.144C522.996 336.581 529.687 353.168 540.509 367.019H549.277Z" fill="white"/>
<path opacity="0.7" d="M587.557 367.019H642.658C655.784 360.814 666.394 350.363 672.744 337.383C679.095 324.402 680.808 309.664 677.604 295.589C674.399 281.514 666.467 268.94 655.11 259.931C643.753 250.922 629.646 246.014 615.107 246.014C600.569 246.014 586.462 250.922 575.105 259.931C563.748 268.94 555.816 281.514 552.611 295.589C549.406 309.664 551.12 324.402 557.471 337.383C563.821 350.363 574.431 360.814 587.557 367.019ZM615.133 252.887C626.451 252.898 637.513 256.235 646.922 262.478C656.332 268.721 663.667 277.59 668.003 287.967C672.339 298.344 673.481 309.762 671.285 320.783C669.09 331.803 663.654 341.93 655.665 349.888C647.676 357.845 637.491 363.276 626.396 365.494C615.3 367.713 603.791 366.62 593.321 362.353C582.851 358.087 573.888 350.838 567.565 341.521C561.241 332.204 557.839 321.237 557.789 310.004C557.762 302.513 559.226 295.09 562.095 288.162C564.965 281.233 569.185 274.935 574.512 269.629C579.84 264.322 586.17 260.112 593.141 257.239C600.112 254.366 607.585 252.887 615.133 252.887Z" fill="white"/>
<path opacity="0.7" d="M615.133 343.191C608.469 343.191 601.955 341.23 596.414 337.555C590.873 333.881 586.555 328.658 584.005 322.548C581.455 316.437 580.787 309.714 582.087 303.227C583.387 296.74 586.596 290.782 591.308 286.105C596.02 281.428 602.024 278.243 608.56 276.953C615.095 275.663 621.87 276.325 628.026 278.856C634.183 281.387 639.445 285.673 643.147 291.172C646.849 296.672 648.825 303.137 648.825 309.751C648.812 318.616 645.258 327.113 638.942 333.382C632.626 339.65 624.064 343.178 615.133 343.191ZM615.133 282.988C609.8 282.988 604.586 284.558 600.152 287.499C595.718 290.439 592.262 294.619 590.221 299.509C588.18 304.399 587.646 309.78 588.686 314.972C589.727 320.163 592.295 324.932 596.066 328.675C599.837 332.417 604.642 334.966 609.872 335.999C615.103 337.031 620.524 336.501 625.452 334.476C630.379 332.45 634.59 329.02 637.553 324.619C640.516 320.218 642.097 315.044 642.097 309.751C642.097 302.653 639.256 295.846 634.199 290.827C629.143 285.808 622.284 282.988 615.133 282.988Z" fill="white"/>
</g>
<path d="M305.528 367.019C302.13 329.579 284.743 294.754 256.785 269.393C228.827 244.032 192.322 229.969 154.446 229.969C116.57 229.969 80.0647 244.032 52.107 269.393C24.1493 294.754 6.76217 329.579 3.36426 367.019H305.528Z" fill="#1D1D1D"/>
<g opacity="0.7">
<path opacity="0.7" d="M6.77931 367.019C10.1363 330.451 27.1455 296.45 54.4672 271.691C81.7889 246.932 117.449 233.205 154.446 233.205C191.442 233.205 227.103 246.932 254.424 271.691C281.746 296.45 298.755 330.451 302.112 367.019H308.892C305.592 328.619 287.891 292.847 259.292 266.78C230.692 240.712 193.276 226.247 154.446 226.247C115.616 226.247 78.2 240.712 49.6001 266.78C21.0003 292.847 3.29972 328.619 0 367.019H6.77931Z" fill="white"/>
<path opacity="0.7" d="M37.2608 367.019C40.4503 338.372 54.1754 311.899 75.8074 292.671C97.4394 273.443 125.458 262.811 154.497 262.811C183.536 262.811 211.555 273.443 233.187 292.671C254.819 311.899 268.544 338.372 271.733 367.019H278.512C275.226 336.664 260.749 308.586 237.866 288.184C214.983 267.782 185.308 256.496 154.548 256.496C123.788 256.496 94.113 267.782 71.2297 288.184C48.3464 308.586 33.8699 336.664 30.5835 367.019H37.2608Z" fill="white"/>
<path opacity="0.7" d="M67.946 367.019C71.1272 346.514 81.5979 327.816 97.4637 314.308C113.329 300.801 133.543 293.375 154.446 293.375C175.349 293.375 195.562 300.801 211.428 314.308C227.294 327.816 237.765 346.514 240.946 367.019H247.776C244.535 344.746 233.316 324.378 216.175 309.646C199.035 294.915 177.12 286.806 154.446 286.806C131.772 286.806 109.857 294.915 92.7163 309.646C75.5757 324.378 64.357 344.746 61.1157 367.019H67.946Z" fill="white"/>
<path opacity="0.7" d="M98.7843 367.019C101.785 354.609 108.908 343.563 119.005 335.661C129.103 327.76 141.587 323.463 154.446 323.463C167.305 323.463 179.789 327.76 189.886 335.661C199.984 343.563 207.107 354.609 210.108 367.019H217.04C213.965 352.808 206.074 340.073 194.683 330.938C183.293 321.803 169.091 316.82 154.446 316.82C139.801 316.82 125.599 321.803 114.209 330.938C102.818 340.073 94.927 352.808 91.8521 367.019H98.7843Z" fill="white"/>
</g>
<path d="M613.196 367.019C609.865 329.536 592.51 294.651 564.549 269.24C536.589 243.828 500.052 229.734 462.14 229.734C424.228 229.734 387.691 243.828 359.73 269.24C331.77 294.651 314.414 329.536 311.083 367.019H613.196Z" fill="#1D1D1D"/>
<g opacity="0.7">
<path opacity="0.7" d="M314.448 367.019C317.739 330.396 334.723 296.323 362.057 271.505C389.391 246.688 425.094 232.925 462.14 232.925C499.186 232.925 534.889 246.688 562.223 271.505C589.557 296.323 606.541 330.396 609.832 367.019H616.611C613.312 328.619 595.611 292.847 567.011 266.78C538.411 240.712 500.996 226.247 462.166 226.247C423.336 226.247 385.92 240.712 357.32 266.78C328.72 292.847 311.019 328.619 307.72 367.019H314.448Z" fill="white"/>
<path opacity="0.7" d="M344.98 367.019C348.062 338.292 361.742 311.712 383.386 292.396C405.03 273.079 433.109 262.393 462.217 262.393C491.324 262.393 519.403 273.079 541.047 292.396C562.691 311.712 576.371 338.292 579.453 367.019H586.283C582.997 336.664 568.52 308.586 545.637 288.184C522.753 267.782 493.079 256.496 462.319 256.496C431.558 256.496 401.884 267.782 379 288.184C356.117 308.586 341.64 336.664 338.354 367.019H344.98Z" fill="white"/>
<path opacity="0.7" d="M375.614 367.019C378.831 346.535 389.32 327.868 405.186 314.385C421.053 300.902 441.252 293.491 462.14 293.491C483.027 293.491 503.227 300.902 519.093 314.385C534.96 327.868 545.448 346.535 548.665 367.019H555.444C552.242 344.722 541.043 324.321 523.902 309.562C506.762 294.803 484.832 286.677 462.14 286.677C439.448 286.677 417.518 294.803 400.377 309.562C383.237 324.321 372.037 344.722 368.835 367.019H375.614Z" fill="white"/>
<path opacity="0.7" d="M406.504 367.019C409.504 354.609 416.627 343.563 426.725 335.661C436.822 327.76 449.307 323.463 462.165 323.463C475.024 323.463 487.508 327.76 497.606 335.661C507.703 343.563 514.826 354.609 517.827 367.019H524.759C521.684 352.808 513.793 340.073 502.403 330.938C491.012 321.803 476.81 316.82 462.165 316.82C447.521 316.82 433.319 321.803 421.928 330.938C410.537 340.073 402.646 352.808 399.571 367.019H406.504Z" fill="white"/>
</g>
<path d="M920.915 367.019C917.585 329.536 900.229 294.651 872.268 269.24C844.308 243.828 807.771 229.734 769.859 229.734C731.947 229.734 695.41 243.828 667.449 269.24C639.489 294.651 622.133 329.536 618.803 367.019H920.915Z" fill="#1D1D1D"/>
<g opacity="0.7">
<path opacity="0.7" d="M622.167 367.019C625.1 330.105 641.945 295.644 669.343 270.511C696.741 245.378 732.678 231.419 769.987 231.419C807.295 231.419 843.232 245.378 870.63 270.511C898.028 295.644 914.873 330.105 917.806 367.019H924.534C921.235 328.619 903.534 292.847 874.934 266.78C846.334 240.712 808.918 226.247 770.088 226.247C731.258 226.247 693.843 240.712 665.243 266.78C636.643 292.847 618.942 328.619 615.643 367.019H622.167Z" fill="white"/>
<path opacity="0.7" d="M652.699 367.019C655.781 338.292 669.461 311.712 691.105 292.396C712.749 273.079 740.828 262.393 769.935 262.393C799.043 262.393 827.122 273.079 848.766 292.396C870.41 311.712 884.09 338.292 887.172 367.019H893.951C890.664 336.664 876.188 308.586 853.305 288.184C830.421 267.782 800.747 256.496 769.986 256.496C739.226 256.496 709.552 267.782 686.668 288.184C663.785 308.586 649.308 336.664 646.022 367.019H652.699Z" fill="white"/>
<path opacity="0.7" d="M683.334 367.019C686.371 346.361 696.798 327.478 712.709 313.823C728.62 300.168 748.952 292.653 769.986 292.653C791.021 292.653 811.352 300.168 827.264 313.823C843.175 327.478 853.602 346.361 856.639 367.019H863.418C860.216 344.722 849.017 324.321 831.876 309.562C814.736 294.803 792.806 286.677 770.114 286.677C747.422 286.677 725.492 294.803 708.351 309.562C691.211 324.321 680.011 344.722 676.809 367.019H683.334Z" fill="white"/>
<path opacity="0.7" d="M714.172 367.019C717.172 354.609 724.295 343.563 734.393 335.661C744.491 327.76 756.975 323.463 769.834 323.463C782.692 323.463 795.176 327.76 805.274 335.661C815.372 343.563 822.495 354.609 825.495 367.019H832.427C829.353 352.808 821.462 340.073 810.071 330.938C798.68 321.803 784.478 316.82 769.834 316.82C755.189 316.82 740.987 321.803 729.596 330.938C718.206 340.073 710.315 352.808 707.24 367.019H714.172Z" fill="white"/>
</g>
<path d="M422.305 367.019C408.06 350.649 390.429 337.517 370.612 328.516C350.796 319.514 329.258 314.855 307.464 314.855C285.671 314.855 264.133 319.514 244.317 328.516C224.5 337.517 206.869 350.649 192.624 367.019H422.305Z" fill="#1D1D1D"/>
<g opacity="0.7">
<path opacity="0.7" d="M197.16 367.019C211.057 351.659 228.056 339.374 247.051 330.964C266.047 322.555 286.613 318.209 307.413 318.209C328.213 318.209 348.779 322.555 367.775 330.964C386.771 339.374 403.77 351.659 417.666 367.019H426.535C412.004 349.655 393.797 335.68 373.209 326.09C352.62 316.499 330.156 311.526 307.413 311.526C284.67 311.526 262.206 316.499 241.618 326.09C221.03 335.68 202.823 349.655 188.291 367.019H197.16Z" fill="white"/>
</g>
<path d="M729.973 367.019C715.728 350.649 698.097 337.517 678.28 328.516C658.464 319.514 636.926 314.855 615.132 314.855C593.339 314.855 571.801 319.514 551.985 328.516C532.168 337.517 514.537 350.649 500.292 367.019H729.973Z" fill="#1D1D1D"/>
<g opacity="0.7">
<path opacity="0.7" d="M504.88 367.019C518.772 351.66 535.766 339.376 554.758 330.967C573.749 322.558 594.312 318.212 615.108 318.212C635.903 318.212 656.466 322.558 675.457 330.967C694.449 339.376 711.443 351.66 725.335 367.019H734.255C719.719 349.654 701.507 335.679 680.915 326.088C660.323 316.497 637.855 311.525 615.108 311.525C592.36 311.525 569.893 316.497 549.3 326.088C528.708 335.679 510.496 349.654 495.96 367.019H504.88Z" fill="white"/>
</g>
</svg>
