<svg width="724" height="344" viewBox="0 0 724 344" fill="none" xmlns="http://www.w3.org/2000/svg">
<path d="M235.43 234.118C249.859 211.337 257.873 185.135 258.638 158.237C259.403 131.339 252.891 104.729 239.779 81.1766C226.667 57.6242 207.435 37.9898 184.084 24.317C160.733 10.6441 134.117 3.43243 107.005 3.43243C79.8934 3.43243 53.2772 10.6441 29.9263 24.317C6.57539 37.9898 -12.6567 57.6242 -25.7685 81.1766C-38.8803 104.729 -45.3927 131.339 -44.6278 158.237C-43.8629 185.135 -35.8488 211.337 -21.4194 234.118H235.43Z" fill="#1D1D1D"/>
<g opacity="0.7">
<path opacity="0.7" d="M-17.1885 234.118C-31.7564 211.901 -40.01 186.192 -41.0779 159.705C-42.1457 133.218 -35.9883 106.937 -23.2556 83.6349C-10.523 60.3331 8.31245 40.8758 31.2622 27.3169C54.212 13.7581 80.4247 6.60092 107.133 6.60092C133.841 6.60092 160.053 13.7581 183.003 27.3169C205.953 40.8758 224.788 60.3331 237.521 83.6349C250.254 106.937 256.411 133.218 255.343 159.705C254.275 186.192 246.022 211.901 231.454 234.118H239.457C253.815 210.789 261.652 184.085 262.164 156.752C262.675 129.42 255.841 102.445 242.366 78.6031C228.89 54.7609 209.259 34.9117 185.491 21.0968C161.723 7.28194 134.676 0 107.133 0C79.589 0 52.5424 7.28194 28.7745 21.0968C5.00666 34.9117 -14.6245 54.7609 -28.1001 78.6031C-41.5758 102.445 -48.4094 129.42 -47.8981 156.752C-47.3868 184.085 -39.5492 210.789 -25.1912 234.118H-17.1885Z" fill="white"/>
<path opacity="0.7" d="M21.3464 234.118C5.53787 217.469 -5.01386 196.59 -9.00683 174.058C-12.9998 151.527 -10.2593 128.328 -1.12354 107.324C8.01224 86.3197 23.1436 68.4297 42.4037 55.861C61.6637 43.2922 84.2098 36.5947 107.26 36.5947C130.31 36.5947 152.856 43.2922 172.117 55.861C191.377 68.4297 206.508 86.3197 215.644 107.324C224.78 128.328 227.52 151.527 223.527 174.058C219.534 196.59 208.982 217.469 193.174 234.118H202.196C217.648 216.121 227.583 194.109 230.827 170.684C234.071 147.259 230.489 123.403 220.503 101.935C210.516 80.4678 194.545 62.2879 174.477 49.5457C154.409 36.8034 131.084 30.0318 107.26 30.0318C83.4367 30.0318 60.1115 36.8034 40.0434 49.5457C19.9753 62.2879 4.00378 80.4678 -5.9823 101.935C-15.9684 123.403 -19.5512 147.259 -16.307 170.684C-13.0628 194.109 -3.12736 216.121 12.3243 234.118H21.3464Z" fill="white"/>
<path opacity="0.7" d="M58.3012 234.118H73.0322C54.3884 226.313 39.0389 212.347 29.5872 194.589C20.1355 176.832 17.1635 156.376 21.1754 136.692C25.1873 117.008 35.936 99.3065 51.5984 86.5911C67.2607 73.8757 86.8725 66.9289 107.107 66.9289C127.342 66.9289 146.954 73.8757 162.616 86.5911C178.278 99.3065 189.027 117.008 193.039 136.692C197.051 156.376 194.079 176.832 184.627 194.589C175.175 212.347 159.826 226.313 141.182 234.118H155.913C173.564 223.537 187.239 207.51 194.847 188.487C202.456 169.465 203.579 148.493 198.045 128.777C192.512 109.061 180.626 91.6852 164.204 79.3063C147.782 66.9273 127.728 60.2256 107.107 60.2256C86.4859 60.2256 66.4319 66.9273 50.0102 79.3063C33.5885 91.6852 21.7026 109.061 16.1689 128.777C10.6353 148.493 11.7585 169.465 19.3668 188.487C26.975 207.51 40.6499 223.537 58.3012 234.118Z" fill="white"/>
<path opacity="0.7" d="M107.133 217.626C94.4562 217.636 82.0615 213.914 71.5171 206.93C60.9727 199.946 52.7525 190.015 47.8968 178.393C43.041 166.771 41.7678 153.981 44.2384 141.64C46.709 129.3 52.8124 117.964 61.7761 109.068C70.7397 100.171 82.1609 94.1135 94.5944 91.6614C107.028 89.2093 119.915 90.4729 131.625 95.2923C143.334 100.112 153.34 108.27 160.377 118.736C167.413 129.201 171.164 141.503 171.154 154.084C171.127 170.929 164.373 187.075 152.373 198.986C140.372 210.896 124.104 217.599 107.133 217.626ZM107.133 97.2211C95.8013 97.2211 84.7244 100.556 75.3026 106.804C65.8809 113.052 58.5375 121.933 54.2012 132.324C49.8648 142.714 48.7302 154.148 50.9409 165.178C53.1515 176.208 58.6082 186.341 66.6207 194.293C74.6333 202.246 84.8418 207.661 95.9555 209.855C107.069 212.049 118.589 210.923 129.058 206.62C139.527 202.316 148.474 195.027 154.77 185.676C161.065 176.325 164.425 165.331 164.425 154.084C164.399 139.012 158.354 124.564 147.615 113.906C136.876 103.247 122.319 97.2478 107.133 97.2211Z" fill="white"/>
<path opacity="0.7" d="M107.133 187.525C100.469 187.525 93.9548 185.563 88.414 181.889C82.8733 178.214 78.5548 172.992 76.0047 166.881C73.4545 160.771 72.7873 154.047 74.0874 147.561C75.3874 141.074 78.5963 135.115 83.3083 130.439C88.0203 125.762 94.0238 122.577 100.56 121.287C107.095 119.997 113.87 120.659 120.026 123.19C126.183 125.721 131.445 130.007 135.147 135.506C138.849 141.005 140.825 147.471 140.825 154.084C140.825 162.953 137.276 171.459 130.957 177.73C124.638 184.001 116.069 187.525 107.133 187.525ZM107.133 127.322C101.8 127.322 96.5864 128.892 92.1521 131.832C87.7178 134.773 84.2617 138.953 82.2208 143.843C80.1799 148.733 79.646 154.114 80.6864 159.305C81.7268 164.497 84.2949 169.265 88.066 173.008C91.837 176.751 96.6416 179.3 101.872 180.332C107.103 181.365 112.524 180.835 117.452 178.81C122.379 176.784 126.59 173.354 129.553 168.953C132.516 164.552 134.097 159.378 134.097 154.084C134.097 146.987 131.256 140.18 126.199 135.161C121.143 130.142 114.284 127.322 107.133 127.322Z" fill="white"/>
</g>
<path d="M82.5132 304.945C96.9425 282.164 104.957 255.961 105.722 229.063C106.486 202.165 99.9741 175.555 86.8623 152.003C73.7505 128.451 54.5184 108.816 31.1675 95.1433C7.81662 81.4705 -18.7997 74.2588 -45.9114 74.2588C-73.0231 74.2588 -99.6393 81.4705 -122.99 95.1433C-146.341 108.816 -165.573 128.451 -178.685 152.003C-191.797 175.555 -198.309 202.165 -197.544 229.063C-196.779 255.961 -188.765 282.164 -174.336 304.945H82.5132Z" fill="#1D1D1D"/>
<g opacity="0.7">
<path opacity="0.7" d="M-170.156 304.945C-184.724 282.727 -192.977 257.018 -194.045 230.531C-195.113 204.045 -188.956 177.763 -176.223 154.461C-163.49 131.16 -144.655 111.702 -121.705 98.1434C-98.7554 84.5845 -72.5428 77.4273 -45.8347 77.4273C-19.1266 77.4273 7.08589 84.5845 30.0357 98.1434C52.9855 111.702 71.821 131.16 84.5536 154.461C97.2863 177.763 103.444 204.045 102.376 230.531C101.308 257.018 93.0544 282.727 78.4865 304.945H86.4381C100.806 281.616 108.652 254.91 109.17 227.574C109.688 200.237 102.858 173.257 89.3846 149.409C75.9107 125.561 56.2788 105.707 32.5085 91.888C8.7381 78.0691 -18.3124 70.785 -45.8602 70.785C-73.4081 70.785 -100.459 78.0691 -124.229 91.888C-147.999 105.707 -167.631 125.561 -181.105 149.409C-194.579 173.257 -201.408 200.237 -200.89 227.574C-200.372 254.91 -192.526 281.616 -178.159 304.945H-170.156Z" fill="white"/>
<path opacity="0.7" d="M-131.57 304.945C-147.361 288.299 -157.897 267.429 -161.88 244.91C-165.863 222.391 -163.117 199.208 -153.982 178.219C-144.848 157.231 -129.723 139.355 -110.474 126.796C-91.2242 114.238 -68.6922 107.546 -45.6564 107.546C-22.6206 107.546 -0.0885925 114.238 19.1608 126.796C38.4101 139.355 53.5349 157.231 62.6698 178.219C71.8046 199.208 74.55 222.391 70.5674 244.91C66.5847 267.429 56.0482 288.299 40.2573 304.945H49.2794C64.731 286.948 74.6665 264.935 77.9107 241.51C81.1549 218.086 77.5721 194.229 67.5861 172.762C57.6 151.294 41.6284 133.114 21.5603 120.372C1.49214 107.63 -21.833 100.858 -45.6564 100.858C-69.4798 100.858 -92.805 107.63 -112.873 120.372C-132.941 133.114 -148.913 151.294 -158.899 172.762C-168.885 194.229 -172.468 218.086 -169.224 241.51C-165.979 264.935 -156.044 286.948 -140.592 304.945H-131.57Z" fill="white"/>
<path opacity="0.7" d="M-94.6661 304.945H-79.9351C-98.5789 297.139 -113.928 283.173 -123.38 265.416C-132.832 247.658 -135.804 227.203 -131.792 207.518C-127.78 187.834 -117.031 170.133 -101.369 157.418C-85.7066 144.702 -66.0949 137.755 -45.8602 137.755C-25.6256 137.755 -6.01389 144.702 9.6485 157.418C25.3109 170.133 36.0596 187.834 40.0714 207.518C44.0833 227.203 41.1114 247.658 31.6597 265.416C22.208 283.173 6.85847 297.139 -11.7853 304.945H2.94563C20.597 294.363 34.2718 278.336 41.8801 259.314C49.4883 240.291 50.6115 219.319 45.0779 199.603C39.5443 179.887 27.6583 162.512 11.2366 150.133C-5.18504 137.754 -25.239 131.052 -45.8602 131.052C-66.4814 131.052 -86.5354 137.754 -102.957 150.133C-119.379 162.512 -131.265 179.887 -136.798 199.603C-142.332 219.319 -141.209 240.291 -133.601 259.314C-125.992 278.336 -112.317 294.363 -94.6661 304.945Z" fill="white"/>
<path opacity="0.7" d="M-45.8348 288.25C-58.4969 288.25 -70.8748 284.523 -81.403 277.541C-91.9313 270.559 -100.137 260.635 -104.983 249.025C-109.828 237.414 -111.096 224.638 -108.626 212.312C-106.156 199.986 -100.058 188.664 -91.1046 179.778C-82.1511 170.892 -70.7436 164.84 -58.3247 162.388C-45.9058 159.936 -33.0333 161.195 -21.3349 166.004C-9.63658 170.813 0.362137 178.957 7.39687 189.407C14.4316 199.856 18.1864 212.141 18.1864 224.708C18.1594 241.552 11.4057 257.699 -0.594765 269.61C-12.5952 281.52 -28.8636 288.223 -45.8348 288.25ZM-45.8348 167.845C-57.1662 167.845 -68.2432 171.18 -77.665 177.428C-87.0867 183.676 -94.4301 192.557 -98.7665 202.948C-103.103 213.338 -104.237 224.772 -102.027 235.802C-99.8161 246.832 -94.3595 256.965 -86.347 264.917C-78.3344 272.87 -68.1258 278.285 -57.0121 280.479C-45.8984 282.673 -34.3786 281.547 -23.9097 277.243C-13.4408 272.94 -4.49293 265.651 1.80249 256.3C8.09791 246.949 11.458 235.955 11.458 224.708C11.4311 209.636 5.38624 195.188 -5.35242 184.53C-16.0911 173.871 -30.648 167.872 -45.8348 167.845Z" fill="white"/>
</g>
<path d="M390.284 304.945C404.743 282.159 412.783 255.942 413.566 229.025C414.348 202.108 407.845 175.475 394.734 151.899C381.623 128.324 362.382 108.669 339.017 94.9808C315.652 81.2929 289.016 74.0729 261.885 74.0729C234.753 74.0729 208.117 81.2929 184.752 94.9808C161.387 108.669 142.146 128.324 129.035 151.899C115.924 175.475 109.421 202.108 110.203 229.025C110.986 255.942 119.026 282.159 133.485 304.945H390.284Z" fill="#1D1D1D"/>
<g opacity="0.7">
<path opacity="0.7" d="M137.512 304.945C122.944 282.727 114.691 257.018 113.623 230.531C112.555 204.045 118.713 177.763 131.445 154.461C144.178 131.16 163.013 111.702 185.963 98.1434C208.913 84.5845 235.126 77.4273 261.834 77.4273C288.542 77.4273 314.754 84.5845 337.704 98.1434C360.654 111.702 379.489 131.16 392.222 154.461C404.955 177.763 411.112 204.045 410.044 230.531C408.976 257.018 400.723 282.727 386.155 304.945H394.158C408.516 281.615 416.353 254.911 416.864 227.579C417.376 200.246 410.542 173.272 397.066 149.429C383.591 125.587 363.96 105.738 340.192 91.9232C316.424 78.1084 289.377 70.8264 261.834 70.8264C234.29 70.8264 207.243 78.1084 183.475 91.9232C159.708 105.738 140.076 125.587 126.601 149.429C113.125 173.272 106.292 200.246 106.803 227.579C107.314 254.911 115.152 281.615 129.51 304.945H137.512Z" fill="white"/>
<path opacity="0.7" d="M175.945 304.945C160.125 288.309 149.559 267.439 145.553 244.912C141.546 222.384 144.275 199.186 153.401 178.18C162.528 157.174 177.653 139.281 196.909 126.709C216.165 114.137 238.709 107.438 261.757 107.438C284.805 107.438 307.349 114.137 326.605 126.709C345.861 139.281 360.986 157.174 370.113 178.18C379.239 199.186 381.968 222.384 377.961 244.912C373.955 267.439 363.389 288.309 347.569 304.945H356.591C372.061 286.944 382.012 264.922 385.267 241.484C388.521 218.045 384.944 194.173 374.956 172.689C364.969 151.206 348.991 133.012 328.912 120.259C308.833 107.507 285.493 100.73 261.655 100.73C237.817 100.73 214.477 107.507 194.398 120.259C174.319 133.012 158.341 151.206 148.354 172.689C138.367 194.173 134.789 218.045 138.044 241.484C141.298 264.922 151.249 286.944 166.719 304.945H175.945Z" fill="white"/>
<path opacity="0.7" d="M213.053 304.945H227.784C209.14 297.139 193.791 283.173 184.339 265.416C174.887 247.658 171.915 227.203 175.927 207.518C179.939 187.834 190.688 170.133 206.35 157.418C222.013 144.702 241.624 137.755 261.859 137.755C282.094 137.755 301.706 144.702 317.368 157.418C333.03 170.133 343.779 187.834 347.791 207.518C351.803 227.203 348.831 247.658 339.379 265.416C329.927 283.173 314.578 297.139 295.934 304.945H310.665C328.316 294.363 341.991 278.336 349.6 259.314C357.208 240.291 358.331 219.319 352.797 199.603C347.264 179.887 335.378 162.512 318.956 150.133C302.534 137.754 282.48 131.052 261.859 131.052C241.238 131.052 221.184 137.754 204.762 150.133C188.34 162.512 176.455 179.887 170.921 199.603C165.387 219.319 166.51 240.291 174.119 259.314C181.727 278.336 195.402 294.363 213.053 304.945Z" fill="white"/>
<path opacity="0.7" d="M261.833 288.25C249.173 288.24 236.801 284.505 226.279 277.517C215.758 270.529 207.56 260.601 202.722 248.99C197.884 237.378 196.624 224.604 199.1 212.281C201.576 199.959 207.677 188.641 216.633 179.76C225.588 170.879 236.996 164.832 249.413 162.384C261.831 159.937 274.701 161.198 286.396 166.009C298.091 170.82 308.087 178.964 315.119 189.412C322.152 199.86 325.906 212.143 325.906 224.708C325.879 241.561 319.118 257.715 307.106 269.627C295.095 281.539 278.813 288.237 261.833 288.25ZM261.833 167.845C250.504 167.855 239.432 171.198 230.017 177.453C220.602 183.707 213.267 192.592 208.938 202.983C204.61 213.374 203.482 224.806 205.699 235.833C207.915 246.86 213.376 256.987 221.39 264.935C229.405 272.882 239.614 278.293 250.726 280.483C261.838 282.673 273.355 281.544 283.821 277.239C294.287 272.933 303.232 265.645 309.525 256.295C315.818 246.945 319.177 235.953 319.177 224.708C319.164 209.623 313.116 195.159 302.364 184.497C291.611 173.834 277.033 167.845 261.833 167.845Z" fill="white"/>
<path opacity="0.7" d="M261.834 258.149C255.172 258.139 248.663 256.169 243.129 252.488C237.595 248.808 233.284 243.582 230.742 237.471C228.2 231.359 227.54 224.637 228.846 218.154C230.151 211.67 233.364 205.717 238.078 201.045C242.792 196.373 248.796 193.193 255.33 191.907C261.864 190.621 268.636 191.286 274.79 193.819C280.943 196.351 286.202 200.637 289.902 206.135C293.602 211.634 295.577 218.097 295.577 224.709C295.564 233.582 292.003 242.088 285.676 248.357C279.349 254.627 270.774 258.149 261.834 258.149ZM261.834 197.946C256.5 197.946 251.287 199.516 246.853 202.457C242.419 205.397 238.963 209.577 236.922 214.467C234.881 219.357 234.347 224.738 235.387 229.93C236.428 235.121 238.996 239.89 242.767 243.632C246.538 247.375 251.343 249.924 256.573 250.957C261.804 251.989 267.225 251.459 272.152 249.434C277.079 247.408 281.291 243.978 284.254 239.577C287.216 235.176 288.798 230.002 288.798 224.709C288.784 217.615 285.939 210.816 280.885 205.8C275.831 200.784 268.981 197.96 261.834 197.946Z" fill="white"/>
</g>
<path d="M247.357 367.019C256.891 344.146 260.595 319.292 258.141 294.659C255.688 270.026 247.153 246.373 233.292 225.795C219.432 205.216 200.672 188.347 178.676 176.681C156.679 165.015 132.124 158.912 107.184 158.912C82.2437 158.912 57.6884 165.015 35.6918 176.681C13.6952 188.347 -5.06392 205.216 -18.9248 225.795C-32.7856 246.373 -41.3205 270.026 -43.7738 294.659C-46.2271 319.292 -42.5231 344.146 -32.9898 367.019H247.357Z" fill="#1D1D1D"/>
<g opacity="0.7">
<path opacity="0.7" d="M-29.3707 367.019C-38.9607 344.632 -42.8119 320.236 -40.58 296.011C-38.3481 271.786 -30.1026 248.487 -16.5807 228.198C-3.0589 207.909 15.3178 191.261 36.9066 179.744C58.4953 168.227 82.6232 162.199 107.133 162.199C131.643 162.199 155.771 168.227 177.359 179.744C198.948 191.261 217.325 207.909 230.847 228.198C244.368 248.487 252.614 271.786 254.846 296.011C257.078 320.236 253.227 344.632 243.637 367.019H250.722C260.206 343.661 263.77 318.35 261.101 293.307C258.432 268.263 249.612 244.253 235.414 223.381C221.216 202.51 202.074 185.415 179.668 173.597C157.262 161.779 132.277 155.599 106.904 155.599C81.5303 155.599 56.5446 161.779 34.1387 173.597C11.7328 185.415 -7.40878 202.51 -21.6066 223.381C-35.8045 244.253 -44.6248 268.263 -47.2938 293.307C-49.9628 318.35 -46.3988 343.661 -36.9146 367.019H-29.3707Z" fill="white"/>
<path opacity="0.7" d="M4.42385 367.019C-5.59916 349.572 -10.8695 329.835 -10.8678 309.751C-10.9005 291.83 -6.78907 274.141 1.14981 258.045C9.08869 241.95 20.6433 227.877 34.924 216.911C49.2047 205.944 65.8305 198.377 83.5214 194.791C101.212 191.205 119.496 191.697 136.966 196.227C154.435 200.758 170.624 209.207 184.286 220.925C197.948 232.642 208.718 247.315 215.768 263.813C222.818 280.312 225.959 298.196 224.949 316.088C223.939 333.981 218.806 351.405 209.944 367.019H217.59C226.949 349.449 231.848 329.878 231.862 310.004C231.912 291.209 227.65 272.649 219.398 255.732C211.147 238.815 199.122 223.985 184.237 212.366C169.351 200.748 151.996 192.646 133.486 188.674C114.977 184.703 95.7991 184.968 77.4076 189.447C59.0162 193.926 41.8938 202.503 27.339 214.527C12.7841 226.551 1.17886 241.707 -6.59667 258.845C-14.3722 275.982 -18.1139 294.652 -17.538 313.439C-16.9621 332.225 -12.0838 350.635 -3.27293 367.272L4.42385 367.019Z" fill="white"/>
<path opacity="0.7" d="M41.2768 367.019C30.1658 354.454 22.9397 338.976 20.4635 322.439C17.9874 305.903 20.3662 289.008 27.3152 273.779C34.2643 258.55 45.4889 245.631 59.6449 236.57C73.801 227.51 90.2885 222.691 107.133 222.691C123.977 222.691 140.465 227.51 154.621 236.57C168.777 245.631 180.002 258.55 186.951 273.779C193.9 289.008 196.278 305.903 193.802 322.439C191.326 338.976 184.1 354.454 172.989 367.019H181.705C192.528 353.168 199.219 336.581 201.017 319.144C202.816 301.707 199.65 284.119 191.879 268.378C184.109 252.638 172.045 239.376 157.06 230.101C142.074 220.826 124.768 215.909 107.107 215.909C89.4468 215.909 72.1404 220.826 57.155 230.101C42.1695 239.376 30.106 252.638 22.3355 268.378C14.565 284.119 11.3991 301.707 13.1976 319.144C14.9961 336.581 21.6869 353.168 32.5095 367.019H41.2768Z" fill="white"/>
<path opacity="0.7" d="M79.5568 367.019H134.658C147.784 360.814 158.394 350.363 164.744 337.383C171.095 324.402 172.808 309.664 169.604 295.589C166.399 281.514 158.467 268.94 147.11 259.931C135.753 250.922 121.646 246.014 107.107 246.014C92.5685 246.014 78.4621 250.922 67.105 259.931C55.748 268.94 47.8156 281.514 44.611 295.589C41.4064 309.664 43.1202 324.402 49.4706 337.383C55.8211 350.363 66.4308 360.814 79.5568 367.019ZM107.133 252.887C118.451 252.898 129.513 256.235 138.922 262.478C148.332 268.721 155.667 277.59 160.003 287.967C164.339 298.344 165.481 309.762 163.285 320.783C161.09 331.803 155.654 341.93 147.665 349.888C139.676 357.845 129.491 363.276 118.396 365.494C107.3 367.713 95.7913 366.62 85.3211 362.353C74.8508 358.087 65.8884 350.838 59.5647 341.521C53.2411 332.204 49.8394 321.237 49.7891 310.004C49.7622 302.513 51.2257 295.09 54.0954 288.162C56.9652 281.233 61.1848 274.935 66.5124 269.629C71.8399 264.322 78.1705 260.112 85.1411 257.239C92.1117 254.366 99.5851 252.887 107.133 252.887Z" fill="white"/>
<path opacity="0.7" d="M107.133 343.191C100.469 343.191 93.955 341.23 88.4143 337.555C82.8735 333.881 78.555 328.658 76.0049 322.548C73.4548 316.437 72.7876 309.714 74.0876 303.227C75.3876 296.74 78.5965 290.782 83.3085 286.105C88.0206 281.428 94.024 278.243 100.56 276.953C107.096 275.663 113.87 276.325 120.027 278.856C126.183 281.387 131.445 285.673 135.147 291.172C138.85 296.672 140.826 303.137 140.826 309.751C140.812 318.616 137.258 327.113 130.942 333.382C124.627 339.65 116.065 343.178 107.133 343.191ZM107.133 282.988C101.8 282.988 96.5866 284.558 92.1523 287.499C87.7181 290.439 84.2619 294.619 82.221 299.509C80.1802 304.399 79.6462 309.78 80.6866 314.972C81.7271 320.163 84.2952 324.932 88.0662 328.675C91.8372 332.417 96.6419 334.966 101.872 335.999C107.103 337.031 112.525 336.501 117.452 334.476C122.379 332.45 126.59 329.02 129.553 324.619C132.516 320.218 134.097 315.044 134.097 309.751C134.097 302.653 131.256 295.846 126.2 290.827C121.143 285.808 114.284 282.988 107.133 282.988Z" fill="white"/>
</g>
<path d="M555.026 367.019C564.585 344.136 568.309 319.266 565.869 294.613C563.429 269.96 554.9 246.284 541.037 225.685C527.174 205.086 508.406 188.198 486.395 176.519C464.384 164.84 439.811 158.729 414.852 158.729C389.893 158.729 365.32 164.84 343.309 176.519C321.298 188.198 302.53 205.086 288.667 225.685C274.804 246.284 266.275 269.96 263.835 294.613C261.395 319.266 265.119 344.136 274.678 367.019H555.026Z" fill="#1D1D1D"/>
<g opacity="0.7">
<path opacity="0.7" d="M278.297 367.019C268.707 344.632 264.856 320.236 267.088 296.011C269.32 271.786 277.566 248.487 291.087 228.198C304.609 207.909 322.986 191.261 344.575 179.744C366.163 168.227 390.291 162.199 414.801 162.199C439.311 162.199 463.439 168.227 485.027 179.744C506.616 191.261 524.993 207.909 538.515 228.198C552.036 248.487 560.282 271.786 562.514 296.011C564.746 320.236 560.895 344.632 551.305 367.019H558.645C568.155 343.651 571.74 318.324 569.084 293.26C566.429 268.196 557.614 244.163 543.414 223.27C529.214 202.377 510.063 185.263 487.643 173.432C465.223 161.601 440.219 155.413 414.827 155.413C389.434 155.413 364.43 161.601 342.01 173.432C319.59 185.263 300.439 202.377 286.239 223.27C272.039 244.163 263.224 268.196 260.569 293.26C257.913 318.324 261.498 343.651 271.008 367.019H278.297Z" fill="white"/>
<path opacity="0.7" d="M311.888 367.019C301.744 349.201 296.481 329.055 296.625 308.589C296.768 288.124 302.313 268.053 312.706 250.376C323.099 232.699 337.977 218.035 355.859 207.843C373.741 197.651 394.002 192.288 414.622 192.288C435.243 192.288 455.504 197.651 473.386 207.843C491.268 218.035 506.146 232.699 516.539 250.376C526.932 268.053 532.477 288.124 532.62 308.589C532.764 329.055 527.501 349.201 517.357 367.019H525.003C535.005 348.152 539.929 327.042 539.297 305.732C538.666 284.422 532.5 263.635 521.397 245.385C510.295 227.135 494.632 212.04 475.925 201.562C457.218 191.083 436.102 185.578 414.622 185.578C393.143 185.578 372.027 191.083 353.32 201.562C334.613 212.04 318.95 227.135 307.848 245.385C296.745 263.635 290.579 284.422 289.948 305.732C289.316 327.042 294.24 348.152 304.242 367.019H311.888Z" fill="white"/>
<path opacity="0.7" d="M348.996 367.019C337.859 354.452 330.61 338.965 328.117 322.412C325.625 305.86 327.995 288.946 334.943 273.696C341.891 258.447 353.122 245.51 367.291 236.435C381.459 227.361 397.964 222.535 414.826 222.535C431.689 222.535 448.194 227.361 462.362 236.435C476.531 245.51 487.762 258.447 494.71 273.696C501.658 288.946 504.028 305.86 501.536 322.412C499.043 338.965 491.794 354.452 480.657 367.019H489.424C500.247 353.168 506.938 336.581 508.736 319.144C510.535 301.707 507.369 284.119 499.598 268.378C491.828 252.638 479.764 239.376 464.779 230.101C449.793 220.826 432.487 215.909 414.826 215.909C397.166 215.909 379.859 220.826 364.874 230.101C349.888 239.376 337.825 252.638 330.055 268.378C322.284 284.119 319.118 301.707 320.917 319.144C322.715 336.581 329.406 353.168 340.229 367.019H348.996Z" fill="white"/>
<path opacity="0.7" d="M387.276 367.019H442.377C455.503 360.814 466.113 350.363 472.463 337.383C478.814 324.402 480.527 309.664 477.323 295.589C474.118 281.514 466.186 268.94 454.829 259.931C443.472 250.922 429.365 246.014 414.827 246.014C400.288 246.014 386.181 250.922 374.824 259.931C363.467 268.94 355.535 281.514 352.33 295.589C349.126 309.664 350.839 324.402 357.19 337.383C363.54 350.363 374.15 360.814 387.276 367.019ZM414.801 252.887C426.132 252.837 437.224 256.124 446.674 262.33C456.123 268.537 463.506 277.385 467.889 287.756C472.272 298.127 473.458 309.556 471.296 320.596C469.135 331.636 463.724 341.792 455.747 349.779C447.77 357.767 437.586 363.228 426.483 365.471C415.379 367.714 403.854 366.639 393.366 362.382C382.878 358.124 373.898 350.875 367.56 341.552C361.223 332.229 357.814 321.25 357.763 310.004C357.722 294.931 363.702 280.456 374.393 269.75C385.084 259.045 399.614 252.981 414.801 252.887Z" fill="white"/>
<path opacity="0.7" d="M414.801 343.191C408.139 343.181 401.63 341.211 396.096 337.531C390.562 333.85 386.252 328.624 383.709 322.513C381.167 316.401 380.507 309.679 381.813 303.196C383.119 296.713 386.332 290.759 391.046 286.087C395.76 281.416 401.763 278.236 408.297 276.95C414.832 275.663 421.604 276.328 427.757 278.861C433.911 281.393 439.17 285.68 442.87 291.178C446.57 296.676 448.544 303.139 448.544 309.751C448.531 318.624 444.97 327.13 438.643 333.4C432.317 339.669 423.741 343.191 414.801 343.191ZM414.801 282.989C409.47 282.999 404.262 284.577 399.834 287.523C395.407 290.47 391.959 294.653 389.925 299.544C387.892 304.435 387.366 309.815 388.412 315.003C389.458 320.191 392.03 324.955 395.803 328.692C399.576 332.43 404.381 334.974 409.61 336.002C414.839 337.031 420.258 336.498 425.182 334.471C430.106 332.444 434.315 329.014 437.275 324.614C440.236 320.214 441.816 315.042 441.816 309.751C441.803 302.648 438.95 295.841 433.886 290.824C428.821 285.807 421.957 282.989 414.801 282.989Z" fill="white"/>
</g>
<path d="M105.196 367.019C101.865 329.536 84.5096 294.651 56.5491 269.24C28.5886 243.828 -7.94829 229.734 -45.8604 229.734C-83.7724 229.734 -120.309 243.828 -148.27 269.24C-176.23 294.651 -193.586 329.536 -196.917 367.019H105.196Z" fill="#1D1D1D"/>
<g opacity="0.7">
<path opacity="0.7" d="M-193.552 367.019C-190.261 330.396 -173.278 296.323 -145.944 271.505C-118.61 246.688 -82.9058 232.925 -45.8602 232.925C-8.81461 232.925 26.8891 246.688 54.2231 271.505C81.557 296.323 98.5409 330.396 101.832 367.019H108.611C105.311 328.619 87.6107 292.847 59.0109 266.78C30.4111 240.712 -7.00468 226.247 -45.8347 226.247C-84.6647 226.247 -122.081 240.712 -150.68 266.78C-179.28 292.847 -196.981 328.619 -200.281 367.019H-193.552Z" fill="white"/>
<path opacity="0.7" d="M-163.02 367.019C-159.938 338.292 -146.258 311.712 -124.614 292.396C-102.97 273.079 -74.8912 262.393 -45.7837 262.393C-16.6762 262.393 11.4025 273.079 33.0467 292.396C54.691 311.712 68.3707 338.292 71.4525 367.019H78.2827C74.9963 336.664 60.5198 308.586 37.6365 288.184C14.7532 267.782 -14.9214 256.496 -45.6817 256.496C-76.4421 256.496 -106.117 267.782 -129 288.184C-151.883 308.586 -166.36 336.664 -169.646 367.019H-163.02Z" fill="white"/>
<path opacity="0.7" d="M-132.386 367.019C-129.169 346.535 -118.68 327.868 -102.814 314.385C-86.9475 300.902 -66.7478 293.491 -45.8602 293.491C-24.9727 293.491 -4.77303 300.902 11.0934 314.385C26.9599 327.868 37.448 346.535 40.6651 367.019H47.4445C44.2425 344.722 33.0428 324.321 15.9024 309.562C-1.23801 294.803 -23.1682 286.677 -45.8602 286.677C-68.5523 286.677 -90.4825 294.803 -107.623 309.562C-124.763 324.321 -135.963 344.722 -139.165 367.019H-132.386Z" fill="white"/>
<path opacity="0.7" d="M-101.496 367.019C-98.4961 354.609 -91.373 343.563 -81.2753 335.661C-71.1776 327.76 -58.6934 323.463 -45.8347 323.463C-32.9761 323.463 -20.492 327.76 -10.3943 335.661C-0.296577 343.563 6.8265 354.609 9.82693 367.019H16.7592C13.6842 352.808 5.7933 340.073 -5.59743 330.938C-16.9882 321.803 -31.1901 316.82 -45.8347 316.82C-60.4794 316.82 -74.6814 321.803 -86.0721 330.938C-97.4628 340.073 -105.354 352.808 -108.429 367.019H-101.496Z" fill="white"/>
</g>
<path d="M412.915 367.019C409.585 329.536 392.229 294.651 364.268 269.24C336.308 243.828 299.771 229.734 261.859 229.734C223.947 229.734 187.41 243.828 159.449 269.24C131.489 294.651 114.133 329.536 110.803 367.019H412.915Z" fill="#1D1D1D"/>
<g opacity="0.7">
<path opacity="0.7" d="M114.167 367.019C117.099 330.105 133.945 295.644 161.343 270.511C188.741 245.378 224.678 231.419 261.986 231.419C299.295 231.419 335.232 245.378 362.63 270.511C390.028 295.644 406.873 330.105 409.806 367.019H416.534C413.234 328.619 395.534 292.847 366.934 266.78C338.334 240.712 300.918 226.247 262.088 226.247C223.258 226.247 185.842 240.712 157.242 266.78C128.643 292.847 110.942 328.619 107.642 367.019H114.167Z" fill="white"/>
<path opacity="0.7" d="M144.699 367.019C147.781 338.292 161.461 311.712 183.105 292.396C204.749 273.079 232.828 262.393 261.935 262.393C291.043 262.393 319.122 273.079 340.766 292.396C362.41 311.712 376.09 338.292 379.172 367.019H385.951C382.664 336.664 368.188 308.586 345.305 288.184C322.421 267.782 292.747 256.496 261.986 256.496C231.226 256.496 201.552 267.782 178.668 288.184C155.785 308.586 141.308 336.664 138.022 367.019H144.699Z" fill="white"/>
<path opacity="0.7" d="M175.334 367.019C178.371 346.361 188.798 327.478 204.709 313.823C220.62 300.168 240.952 292.653 261.986 292.653C283.021 292.653 303.352 300.168 319.264 313.823C335.175 327.478 345.602 346.361 348.639 367.019H355.418C352.216 344.722 341.017 324.321 323.876 309.562C306.736 294.803 284.806 286.677 262.114 286.677C239.422 286.677 217.492 294.803 200.351 309.562C183.211 324.321 172.011 344.722 168.809 367.019H175.334Z" fill="white"/>
<path opacity="0.7" d="M206.171 367.019C209.172 354.609 216.295 343.563 226.393 335.661C236.49 327.76 248.974 323.463 261.833 323.463C274.692 323.463 287.176 327.76 297.274 335.661C307.371 343.563 314.494 354.609 317.495 367.019H324.427C321.352 352.808 313.461 340.073 302.071 330.938C290.68 321.803 276.478 316.82 261.833 316.82C247.189 316.82 232.987 321.803 221.596 330.938C210.205 340.073 202.314 352.808 199.239 367.019H206.171Z" fill="white"/>
</g>
<path d="M720.634 367.019C717.236 329.579 699.849 294.754 671.891 269.393C643.934 244.032 607.428 229.969 569.553 229.969C531.677 229.969 495.171 244.032 467.214 269.393C439.256 294.754 421.869 329.579 418.471 367.019H720.634Z" fill="#1D1D1D"/>
<g opacity="0.7">
<path opacity="0.7" d="M421.835 367.019C425.126 330.396 442.11 296.323 469.444 271.505C496.778 246.688 532.481 232.925 569.527 232.925C606.573 232.925 642.276 246.688 669.61 271.505C696.944 296.323 713.928 330.396 717.219 367.019H723.998C720.699 328.619 702.998 292.847 674.398 266.78C645.798 240.712 608.383 226.247 569.552 226.247C530.722 226.247 493.307 240.712 464.707 266.78C436.107 292.847 418.406 328.619 415.107 367.019H421.835Z" fill="white"/>
<path opacity="0.7" d="M452.367 367.019C455.557 338.372 469.282 311.899 490.914 292.671C512.546 273.443 540.564 262.811 569.603 262.811C598.642 262.811 626.661 273.443 648.293 292.671C669.925 311.899 683.65 338.372 686.839 367.019H693.619C690.332 336.664 675.856 308.586 652.973 288.184C630.089 267.782 600.415 256.496 569.654 256.496C538.894 256.496 509.219 267.782 486.336 288.184C463.453 308.586 448.976 336.664 445.69 367.019H452.367Z" fill="white"/>
<path opacity="0.7" d="M483.052 367.019C486.234 346.514 496.704 327.816 512.57 314.308C528.436 300.801 548.649 293.375 569.552 293.375C590.456 293.375 610.669 300.801 626.534 314.308C642.4 327.816 652.871 346.514 656.052 367.019H662.882C659.641 344.746 648.422 324.378 631.282 309.646C614.141 294.915 592.226 286.806 569.552 286.806C546.878 286.806 524.963 294.915 507.823 309.646C490.682 324.378 479.463 344.746 476.222 367.019H483.052Z" fill="white"/>
<path opacity="0.7" d="M513.891 367.019C516.891 354.609 524.014 343.563 534.112 335.661C544.21 327.76 556.694 323.463 569.552 323.463C582.411 323.463 594.895 327.76 604.993 335.661C615.09 343.563 622.214 354.609 625.214 367.019H632.146C629.071 352.808 621.18 340.073 609.79 330.938C598.399 321.803 584.197 316.82 569.552 316.82C554.908 316.82 540.706 321.803 529.315 330.938C517.924 340.073 510.033 352.808 506.958 367.019H513.891Z" fill="white"/>
</g>
<path d="M221.973 367.019C207.728 350.649 190.097 337.517 170.281 328.516C150.464 319.514 128.926 314.855 107.133 314.855C85.3392 314.855 63.8015 319.514 43.9847 328.516C24.168 337.517 6.53738 350.649 -7.70776 367.019H221.973Z" fill="#1D1D1D"/>
<g opacity="0.7">
<path opacity="0.7" d="M-3.12014 367.019C10.7716 351.66 27.7662 339.376 46.7576 330.967C65.749 322.558 86.3116 318.212 107.107 318.212C127.903 318.212 148.466 322.558 167.457 330.967C186.448 339.376 203.443 351.66 217.335 367.019H226.255C211.718 349.654 193.507 335.679 172.915 326.088C152.322 316.497 129.854 311.525 107.107 311.525C84.3602 311.525 61.8923 316.497 41.3 326.088C20.7076 335.679 2.49617 349.654 -12.0403 367.019H-3.12014Z" fill="white"/>
<path opacity="0.7" d="M43.3667 367.019C62.3455 354.823 84.4726 348.335 107.082 348.335C129.691 348.335 151.818 354.823 170.797 367.019H182.419C160.79 350.552 134.291 341.626 107.031 341.626C79.7709 341.626 53.2724 350.552 31.6431 367.019H43.3667Z" fill="white"/>
</g>
<path d="M529.641 367.019C515.401 350.65 497.775 337.519 477.962 328.518C458.15 319.517 436.616 314.858 414.826 314.858C393.037 314.858 371.503 319.517 351.691 328.518C331.878 337.519 314.252 350.65 300.011 367.019H529.641Z" fill="#1D1D1D"/>
<g opacity="0.7">
<path opacity="0.7" d="M304.599 367.019C318.491 351.66 335.485 339.376 354.477 330.967C373.468 322.558 394.031 318.212 414.827 318.212C435.622 318.212 456.185 322.558 475.176 330.967C494.168 339.376 511.162 351.66 525.054 367.019H533.974C519.438 349.654 501.226 335.679 480.634 326.088C460.042 316.497 437.574 311.525 414.827 311.525C392.08 311.525 369.612 316.497 349.019 326.088C328.427 335.679 310.215 349.654 295.679 367.019H304.599Z" fill="white"/>
<path opacity="0.7" d="M351.035 367.019C370.014 354.823 392.141 348.335 414.75 348.335C437.359 348.335 459.486 354.823 478.465 367.019H490.291C468.654 350.548 442.146 341.62 414.877 341.62C387.609 341.62 361.101 350.548 339.464 367.019H351.035Z" fill="white"/>
</g>
</svg>
