<svg xmlns="http://www.w3.org/2000/svg" width="17.327" height="16.605" viewBox="0 0 17.327 16.605">
  <g id="like" transform="translate(0 -10.667)">
    <g id="Group_6" data-name="Group 6" transform="translate(0 17.886)">
      <g id="Group_5" data-name="Group 5">
        <path id="Path_22" data-name="Path 22" d="M1.8,224A1.807,1.807,0,0,0,0,225.8v5.776a1.807,1.807,0,0,0,1.8,1.8H3.971a1.792,1.792,0,0,0,1.083-.365V224Z" transform="translate(0 -224)" fill="#54c9ef"/>
      </g>
    </g>
    <g id="Group_8" data-name="Group 8" transform="translate(5.776 10.667)">
      <g id="Group_7" data-name="Group 7" transform="translate(0 0)">
        <path id="Path_23" data-name="Path 23" d="M182.218,20.594a1.6,1.6,0,0,0-.47-1.136,1.792,1.792,0,0,0,.462-1.378,1.866,1.866,0,0,0-1.883-1.637h-4.459a10.38,10.38,0,0,0,.575-2.888c0-1.566-1.331-2.888-2.166-2.888a2.271,2.271,0,0,0-1.309.44.363.363,0,0,0-.135.282v2.448l-2.079,4.5-.087.044v7.738a4.73,4.73,0,0,0,1.8.427H179.1a1.661,1.661,0,0,0,1.636-1.261A1.624,1.624,0,0,0,180.6,24.2a1.617,1.617,0,0,0,.723-2.167A1.616,1.616,0,0,0,182.218,20.594Z" transform="translate(-170.667 -10.667)" fill="#54c9ef"/>
      </g>
    </g>
  </g>
</svg>
