<svg xmlns="http://www.w3.org/2000/svg" width="28.169" height="40.807" viewBox="0 0 28.169 40.807">
  <g id="oni-samurai" transform="translate(-0.023 0.01)">
    <path id="Path_28" data-name="Path 28" d="M2283.335,200.932a4.242,4.242,0,0,0,1.619-1.267,1.564,1.564,0,0,1,1.06.35s11.987,4,13.813,5.655c0,0,.382,1.148-.913.736,0,0-9.453-4.271-13.429-5.125,0,0,2.739.5,2.709,4.241,0,0-.707-2.713-1.62-3.21a31.349,31.349,0,0,1,1.914,8.364s.015.106-.515.121-2.008.13-2.008.13a.2.2,0,0,1-.175-.184c-.03-.179-.321-1.74-.321-1.74l.053,2.3h2.047v.687h-6.63l1.276-9.036-1.06-.275s-.275.175.059.294.668.2.668.2l-1.575,8.82h-4l.1-.927s-.175-.216-.2.078-.1.849-.1.849h-.923l.1-1.359h3.691v-2.175s-.2-.137-.175.1,0,1.751,0,1.751h-3.455l.157-2.258s-.059-.294.373-.275,3.22,0,3.22,0l.1-2.032s-.216-.182-.216.1v1.642a28.808,28.808,0,0,1-3.308-.128c-.285-.137.186-2.552.55-2.562s2.8,0,2.8,0,.152.3.226.226.706-1.1.706-1.1-.059-.295-.2-.108-.5.814-.5.814l-3.131-.263s-.207-.118.255-.579,3.014-2.857,3.014-2.857a.335.335,0,0,0-.367.049l-1.806,1.8s-.155.11-.066-.272a10.28,10.28,0,0,0,.361-1.4c-.03-.193-.228.243-.228.243a10.852,10.852,0,0,1-.751,1.885c-.206.177-.707.589-.751,1.05a4.427,4.427,0,0,1-.324,1.354c-.176.383.014,1.885-.207,2.283a8.012,8.012,0,0,0-.236,2.355h-.8v-2.084s.148-.426.412-.515l.03-2.224a1.4,1.4,0,0,0,.515-.81,2.634,2.634,0,0,1,.825-1.885s.9-2.533,1.428-2.724l2.459.147s1.728-.6,0-1.751l-2.052-.148,3.622-1.148s.118.835-.245,1.031c0,0,.118.2.363-.049a1.777,1.777,0,0,0,.373-1.159s1.686-.954-.427-3.45c0,0-.7-.839-2.626.081l-1.48.846s-.368.118-.3-.242.9-3.66.9-3.66.143-.132.231,0,.275.359.275.359.049.137.393-.1,1.674-1.63,2.7-1.816c0,0-.913-.175-2.954,1.566a.619.619,0,0,1-.378-.57,1.517,1.517,0,0,1,.157-.657,11.6,11.6,0,0,1,.81-1.246c.11-.053.029.29.029.29l-.3,1.33s.02.143.128.088,3.514-3.1,3.851-3.151a28.519,28.519,0,0,0-3.51,2.547s-.166-.015.087-.648.35-2.072.972-2.538c0,0,.212-.148.087-.246a5.883,5.883,0,0,1-1.144-1.271s-.166-.034-.122.064.839,1.153.839,1.252a.307.307,0,0,1-.333.25c-.206-.012-.815,0-.815,0a1.64,1.64,0,0,1-.182-1.257l.175-.776s-.29-.233-.388-.331-.234.029-.234.029a2.688,2.688,0,0,1-.512.293c-.074-.007-.024-.269.125-.474s.772-2.394.2-3.248a.366.366,0,0,0-.481-.034,2.4,2.4,0,0,0-.422.545c-.064.186.143-.015.143-.015s.339-.383.4-.378a.263.263,0,0,1,.206.231c0,.137.034,1.467.034,1.467a6.156,6.156,0,0,1-.923,2.091s-.309.272-.317-.074,0-1.759,0-1.759a.8.8,0,0,1-.2-.332,1.251,1.251,0,0,1,.088-.648,3.267,3.267,0,0,1,.262-.272s-.471-.235-.515-1.436c0,0-.331-1.3-.613-1.443,0,0-.162-.192-.022-.17s.411.06,1.068,1.318c0,0,.147.052.1-.052a17.68,17.68,0,0,1-1.443-3.247,11.35,11.35,0,0,1-.461-3.2,6.487,6.487,0,0,1,.137-1.247s.082-.412.125-.419a6.9,6.9,0,0,1,.818.788c.022.059-.17.346-.3.479a.436.436,0,0,0-.073.154,16.216,16.216,0,0,0,.589,3.313,14.71,14.71,0,0,0,.744,1.632c.11.067.08-.185.08-.185v-1.5s.022-.117.118-.117l.333.281s.128.1.064.147-.275.275-.275.275v2.849s-.2.825-.461.986c0,0-.022.118.052.118a1.481,1.481,0,0,0,.574-1.068,1.734,1.734,0,0,0,.08-.471c0-.228.06-2.172.06-2.172a1.2,1.2,0,0,1,.1-.228c.052-.074.42-1.532.722-1.694,0,0,.117-.162.162-.074a4.848,4.848,0,0,1-.14.906,12.21,12.21,0,0,0-.375,3.247s.049.207.108.175.314-2.474.314-2.474.275-.481.481-.766,1.313-3.151,1.313-3.151.373-.412.49-.294a.334.334,0,0,1,.03.263c-.049.137-1.193,3.7-1.193,3.7s-.427,4.435-.9,4.859a8.783,8.783,0,0,0,1.266-3.769l1.458-.03s1.5.721,1.547,1.031c0,0-1.562.721-1.031,1.958,0,0,.207-1.619,1.075-1.59,0,0,1.694.192,1.634.721,0,0-.854.811-.691,1.031,0,0,.132.074.206,0s.369-.721.663-.706,1.988.53,2.195.486-.158.074-.158.074-2.38.642-2.635.623-2.994-.795-4.349.157c0,0-1.335,1.021-1.443,1.414,0,0,1.639-1.443,2.386-1.443a9.1,9.1,0,0,1,3.386.263,4.519,4.519,0,0,1,2.208-.628h2.363l.776.432s.235.5.01.788-1.111,1.153-1.111,1.153a.64.64,0,0,1-.7-.06,3.454,3.454,0,0,0-2.375-.186,8.984,8.984,0,0,0-2.14,1.071c-.363.334-.707.5-.717.755a1.224,1.224,0,0,0,.412.736c.108.059.55.481.638.481,0,0,.049-.128-.452-.668s-.049-.746-.049-.746a8.23,8.23,0,0,1,1.777-1.031,3.608,3.608,0,0,1,2.2-.245,2.138,2.138,0,0,1,1.463,1.443,5.643,5.643,0,0,1,.187,1.109c-.03.059-.117.059-.618-.373a3.826,3.826,0,0,0-3.851-.875s-.108.137.167.127,1.532-.029,1.532-.029a4.5,4.5,0,0,1,3.042,2.425,4.267,4.267,0,0,1,.235,1.158c.04.648.3,8.344.3,8.344s-.118.2-.687-.57a4.087,4.087,0,0,0-1.488-1.158l-.963,4.5s-.079.314-.333.216-1.355-.53-1.786-.059-.668,1.178-1.492,1.021-1.57-.333-1.57-.333-.175.059-.039.137a6.428,6.428,0,0,0,1.766.51l-.039.55a2.006,2.006,0,0,0,2.513-.77s-1.517.928-2.136.633Z" transform="translate(-2271.688 -171.19)" fill="#bbb"/>
    <path id="Path_29" data-name="Path 29" d="M2248.755,429.045l5.222-3s.845-.117,1,.158l-4.868,2.984,5.2-2.67a2.547,2.547,0,0,1,.525,2.414l-4.962,1.9a11.434,11.434,0,0,0,3.082.471s.256.2.216.374.039.608-.3.608-4.241-.55-4.241-.55,1.728-.943-.35-2.451c0,0,1.61,1.826.1,2.022,0,0-.648.393-.727.613,0,0-.311.362-.413.214a1.889,1.889,0,0,1-.07-.706s-.078-.1-.111-.045a5.413,5.413,0,0,0-.088.637s-.464.191-.472-.118,0-.928,0-.928a.1.1,0,0,0-.147.063c-.044.114-.122.951-.284.956s-.5.034-.48-.438a2.816,2.816,0,0,1,.262-1.1s-.044-.226-.152-.068a2.892,2.892,0,0,0-.52,1.32s-.034.427-.309.373-.4-.456-.275-.972a2.1,2.1,0,0,1,1.35-1.786,1.127,1.127,0,0,1,.355-.16c.184-.039,1.318,0,1.318,0Z" transform="translate(-2245.53 -403.72)" fill="#bbb"/>
  </g>
</svg>
