<svg width="40" height="41" viewBox="0 0 40 41" fill="none" xmlns="http://www.w3.org/2000/svg">
<g clip-path="url(#clip0)">
<path d="M30.3155 19.5088C30.5962 19.3684 31.0173 19.6491 31.0173 19.9298L31.5787 22.0351C31.7191 22.3158 31.4384 22.7369 31.1577 22.7369C30.8769 22.8772 30.4559 22.5965 30.4559 22.3158L29.8945 20.2106C29.7541 19.9298 29.8945 19.5088 30.3155 19.5088ZM14.1752 3.78949C14.0348 3.50879 14.0348 3.08774 14.3155 2.94739L16.1401 1.68423C16.4208 1.54388 16.8419 1.54388 16.9822 1.82458C17.1226 2.24563 17.1226 2.52634 16.8419 2.80704L15.0173 4.0702C14.7366 4.0702 14.3155 4.0702 14.1752 3.78949Z" fill="white"/>
<path fill-rule="evenodd" clip-rule="evenodd" d="M23.579 11.2282C21.4737 10.8071 19.2281 11.0878 17.2632 12.351C20.0702 11.3685 23.2983 12.0703 25.5439 14.3159C28.6316 17.5439 28.6316 22.7369 25.5439 25.8247C25.1228 26.2457 24.7018 26.5264 24.2807 26.8071C25.4035 26.3861 26.5263 25.8247 27.3685 24.8422C29.6141 22.5966 30.1755 19.3685 29.3334 16.5615C26.9474 15.7194 24.8421 13.7545 23.579 11.2282Z" fill="#FFAE54"/>
<path d="M36.9123 29.4736C31.8596 38.8771 20.0702 42.3859 10.807 37.1929C1.40351 32.1403 -1.96491 20.2104 3.08772 10.8069C6.45614 4.63148 12.6316 0.982362 19.2281 0.70166C20.0702 0.70166 20.7719 1.12271 21.193 1.96482C21.614 2.80692 21.8947 3.92973 21.7544 5.05254C21.7544 5.47359 21.7544 5.89464 21.7544 6.3157C21.7544 8.28061 22.3158 10.2455 23.1579 11.9297C19.0877 10.3859 14.4561 12.0701 12.3509 15.9999C9.96491 20.3508 11.6491 25.6841 15.8596 28.0701C20.0702 30.456 25.5439 28.7718 27.7895 24.5613C29.0526 22.1753 29.193 19.3683 28.2105 16.9824C29.8947 17.8245 31.7193 18.2455 33.6842 18.2455C34.807 18.2455 35.7895 18.1052 36.9123 17.8245C37.4737 17.6841 38.1754 17.6841 38.5965 17.9648C39.0175 18.2455 39.2982 18.5262 39.2982 18.9473C39.4386 22.456 38.5965 26.1052 36.9123 29.4736Z" fill="url(#paint0_radial)" stroke="#AC562A" stroke-width="1.0716"/>
<path d="M31.8595 25.6841L32.5612 25.4034C33.1226 26.8069 32.4209 28.0701 31.9998 29.0525C31.9998 29.0525 31.9998 29.0525 31.9998 29.1929C31.7191 29.7543 31.4384 30.1753 31.4384 30.5964C31.2981 31.2981 31.2981 31.9999 31.4384 32.421C31.5788 32.842 31.9998 33.2631 32.5612 33.4034C32.9823 33.5438 33.684 33.4034 34.5262 32.842C37.8946 28.9122 39.4384 23.8596 39.1577 19.0876C39.1577 18.6666 38.877 18.2455 38.456 17.9648C38.0349 17.6841 37.3332 17.6841 36.7718 17.8245C35.7893 18.1052 34.6665 18.2455 33.684 18.2455C31.7191 18.2455 29.8946 17.8245 28.2104 16.842C29.1928 19.228 29.0525 21.8946 27.9297 24.2806C27.7893 24.7017 27.5086 24.9824 27.2279 25.4034C27.7893 25.2631 28.3507 24.9824 29.1928 24.421C30.1753 23.7192 31.4384 24.421 31.8595 25.6841ZM31.8595 25.6841C32.2805 26.8069 31.7191 27.7894 31.2981 28.7718C31.0174 29.3332 30.7367 29.8946 30.5963 30.456L31.8595 25.6841ZM18.3858 11.3683C16.4209 11.9297 14.877 11.649 13.7542 11.0876C12.6314 10.3859 11.649 9.40341 11.2279 8.28061C10.6665 7.01745 10.5262 5.75429 10.8069 4.63148C11.0876 3.50868 11.649 2.66657 12.4911 2.24552C14.877 1.26306 17.4033 0.70166 19.7893 0.70166C20.4911 0.70166 21.0525 1.12271 21.4735 1.82447C21.8946 2.52622 22.0349 3.50868 21.8946 4.35078C21.7542 4.91219 21.7542 5.61394 21.7542 6.31569C21.7542 8.28061 22.3156 10.2455 23.1577 11.9297C21.6139 11.228 19.9297 11.0876 18.3858 11.3683Z" fill="#AC562A" stroke="#AC562A" stroke-width="1.0716"/>
<path d="M5.33353 16.7017C5.87613 16.7017 6.31599 16.2619 6.31599 15.7193C6.31599 15.1767 5.87613 14.7368 5.33353 14.7368C4.79093 14.7368 4.35107 15.1767 4.35107 15.7193C4.35107 16.2619 4.79093 16.7017 5.33353 16.7017Z" fill="#AC562A"/>
<path d="M19.9297 34.2457C20.4723 34.2457 20.9122 33.8058 20.9122 33.2632C20.9122 32.7206 20.4723 32.2808 19.9297 32.2808C19.3871 32.2808 18.9473 32.7206 18.9473 33.2632C18.9473 33.8058 19.3871 34.2457 19.9297 34.2457Z" fill="#AC562A"/>
<path d="M13.7545 35.7896C14.6847 35.7896 15.4387 35.0355 15.4387 34.1054C15.4387 33.1752 14.6847 32.4211 13.7545 32.4211C12.8244 32.4211 12.0703 33.1752 12.0703 34.1054C12.0703 35.0355 12.8244 35.7896 13.7545 35.7896Z" fill="#AC562A"/>
</g>
<defs>
<radialGradient id="paint0_radial" cx="0" cy="0" r="1" gradientUnits="userSpaceOnUse" gradientTransform="translate(19.9806 20.1821) rotate(90) scale(20.1795 19.9762)">
<stop offset="0.3335" stop-color="#F7B450"/>
<stop offset="0.6477" stop-color="#FFC977"/>
<stop offset="1" stop-color="#FF9900"/>
</radialGradient>
<clipPath id="clip0">
<rect width="40" height="40.4211" fill="white"/>
</clipPath>
</defs>
</svg>
