<svg width="40" height="40" viewBox="0 0 40 40" fill="none" xmlns="http://www.w3.org/2000/svg">
<g opacity="0.7" clip-path="url(#clip0)">
<path fill-rule="evenodd" clip-rule="evenodd" d="M7.125 6.25C6.5 3 9 0 12.25 0C15.125 0 17.5 2.375 17.5 5.25V11.75C18.25 11.75 19 11.625 19.75 11.625C20.5 11.625 21.125 11.625 21.875 11.75V5.25C21.875 2.375 24.25 0 27.125 0C30.375 0 32.875 3 32.375 6.25L31 13.875C35.875 16 39.625 19.75 39.625 24.375V27.25C39.625 31.125 37.125 34.375 33.5 36.5C29.875 38.75 25.125 40 19.75 40C14.375 40 9.625 38.75 6 36.5C2.5 34.375 0 31.125 0 27.25V24.375C0 19.75 3.625 16 8.5 13.875L7.125 6.25ZM29.125 14.875L30.75 5.875C31.125 3.625 29.5 1.5 27.125 1.5C25.125 1.5 23.5 3.125 23.5 5.125V13.375C23 13.25 22.375 13.25 21.875 13.25C21.125 13.25 20.5 13.125 19.75 13.125C19 13.125 18.25 13.125 17.5 13.25C17 13.25 16.375 13.375 15.875 13.375V5.25C15.875 3.25 14.25 1.625 12.25 1.625C10 1.625 8.25 3.75 8.75 6L10.375 15C5.125 17 1.625 20.5 1.625 24.5V27.375C1.625 33.5 9.75 38.5 19.75 38.5C29.75 38.5 37.875 33.5 37.875 27.375V24.5C38 20.375 34.5 16.875 29.125 14.875Z" fill="#633001"/>
<path d="M38 27.25C38 33.375 29.875 38.375 19.875 38.375C9.875 38.375 1.75 33.375 1.75 27.25V24.375H38.125V27.25H38Z" fill="#FEDC90"/>
<path fill-rule="evenodd" clip-rule="evenodd" d="M8.75 6C8.25 3.75 10 1.625 12.25 1.625C14.25 1.625 15.875 3.25 15.875 5.25V13.5C17.125 13.375 18.375 13.25 19.75 13.25C21 13.25 22.25 13.375 23.5 13.5V5.25C23.5 3.25 25.125 1.625 27.125 1.625C29.375 1.625 31.125 3.75 30.75 6L29.125 15C34.375 17 38 20.5 38 24.5C38 30.625 29.875 35.625 19.875 35.625C9.875 35.625 1.75 30.625 1.75 24.5C1.75 20.5 5.25 17 10.5 15L8.75 6Z" fill="#D1884F"/>
<path d="M14.75 23.625C14.75 25.25 13.875 26.625 12.75 26.625C11.625 26.625 10.75 25.25 10.75 23.625C10.75 22 11.625 20.625 12.75 20.625C13.875 20.625 14.75 22 14.75 23.625Z" fill="#633001"/>
<path d="M28.625 23.625C28.625 25.25 27.75 26.625 26.625 26.625C25.5 26.625 24.625 25.25 24.625 23.625C24.625 22 25.5 20.625 26.625 20.625C27.75 20.625 28.625 22 28.625 23.625Z" fill="#633001"/>
</g>
<defs>
<clipPath id="clip0">
<rect width="39.625" height="40" fill="white"/>
</clipPath>
</defs>
</svg>
