<svg width="40" height="47" viewBox="0 0 40 47" fill="none" xmlns="http://www.w3.org/2000/svg">
<g clip-path="url(#clip0)">
<path d="M15.6862 10.4814C15.1871 10.4101 15.1633 10.3863 15.401 10.3626C15.8526 10.2913 16.8983 10.3863 17.6351 10.5527C19.3463 10.9568 20.8912 12.0025 22.5311 13.8326L22.9589 14.3317L23.5769 14.2366C26.215 13.8088 28.9244 14.1415 31.1823 15.1873C31.8003 15.4725 32.7747 16.0429 32.8935 16.1855C32.9411 16.233 33.0124 16.542 33.0599 16.851C33.2263 17.968 33.155 18.7999 32.7985 19.4416C32.6083 19.7981 32.6083 19.8932 32.7272 20.2021C32.8222 20.4398 33.1075 20.6062 33.3689 20.6062C33.9393 20.6062 34.5335 19.703 34.8187 18.4434L34.9375 17.9443L35.1514 18.1819C36.3635 19.5367 37.3142 21.4143 37.4568 22.7452L37.5044 23.1017L37.2905 22.7928C36.934 22.2461 36.6012 21.8896 36.1496 21.5806C35.3416 21.034 34.4859 20.8676 32.2281 20.7488C30.1841 20.63 29.0195 20.4636 27.8787 20.0833C25.9298 19.4416 24.9316 18.6098 22.6262 15.5438C21.6042 14.1891 20.9625 13.4523 20.3208 12.8344C18.9185 11.4796 17.5162 10.7666 15.6862 10.4814Z" fill="#FF007A"/>
<path d="M33.3926 13.4998C33.4401 12.5966 33.5589 12.0024 33.8204 11.4558C33.9154 11.2419 34.0105 11.0518 34.0343 11.0518C34.058 11.0518 34.0105 11.2181 33.9392 11.4083C33.7491 11.9311 33.7253 12.6679 33.8441 13.4998C34.0105 14.5693 34.0818 14.7119 35.2226 15.8765C35.7455 16.4231 36.3635 17.1124 36.6011 17.3976L37.0052 17.9204L36.6011 17.5402C36.102 17.0648 34.9612 16.1617 34.6998 16.0428C34.5334 15.9478 34.5096 15.9478 34.3908 16.0666C34.2957 16.1617 34.2719 16.3043 34.2719 16.9935C34.2482 18.063 34.1056 18.7285 33.7491 19.4178C33.5589 19.7743 33.5352 19.703 33.7015 19.2989C33.8204 18.99 33.8441 18.8474 33.8441 17.8254C33.8441 15.7576 33.6065 15.2585 32.1567 14.4267C31.8002 14.2128 31.1822 13.9038 30.8257 13.7374C30.4454 13.5711 30.1602 13.4285 30.184 13.4285C30.2315 13.3809 31.6338 13.785 32.1804 14.0226C33.0123 14.3554 33.1549 14.3792 33.25 14.3554C33.3213 14.2841 33.3688 14.0939 33.3926 13.4998Z" fill="#FF007A"/>
<path d="M16.6607 17.0409C15.6624 15.6624 15.0207 13.5234 15.1633 11.931L15.2109 11.4319L15.4485 11.4794C15.8763 11.5507 16.6131 11.8359 16.9696 12.0498C17.9203 12.6202 18.3481 13.4046 18.7522 15.3535C18.871 15.9239 19.0374 16.5893 19.1087 16.8032C19.2275 17.1598 19.6791 17.9916 20.0594 18.5145C20.3208 18.8947 20.1544 19.0849 19.5602 19.0374C18.6571 18.9423 17.445 18.1104 16.6607 17.0409Z" fill="#FF007A"/>
<path d="M32.1806 27.3796C27.4747 25.4783 25.811 23.8383 25.811 21.0576C25.811 20.6535 25.8348 20.3208 25.8348 20.3208C25.8586 20.3208 26.0249 20.4634 26.2388 20.6298C27.1895 21.3903 28.259 21.7231 31.2299 22.1509C32.9649 22.4123 33.9631 22.6024 34.8663 22.9114C37.7421 23.8621 39.5246 25.811 39.9525 28.4491C40.0713 29.2097 40 30.6595 39.8098 31.42C39.6435 32.0142 39.1681 33.1075 39.0493 33.1313C39.0255 33.1313 38.978 33.0124 38.978 32.8223C38.9305 31.8241 38.4314 30.8734 37.5995 30.1366C36.6013 29.281 35.3179 28.6393 32.1806 27.3796Z" fill="#FF007A"/>
<path d="M28.8532 28.164C28.8057 27.8075 28.6868 27.356 28.6155 27.1658L28.4967 26.8093L28.7106 27.0708C29.0196 27.4273 29.2572 27.8551 29.4711 28.4493C29.6375 28.9008 29.6375 29.0434 29.6375 29.7802C29.6375 30.4932 29.6137 30.6596 29.4711 31.0636C29.2335 31.7053 28.9483 32.1569 28.4729 32.656C27.6173 33.5354 26.5003 34.0108 24.9079 34.2247C24.6227 34.2484 23.8146 34.3197 23.1016 34.3673C21.319 34.4623 20.1307 34.6525 19.0612 35.0327C18.9186 35.0803 18.776 35.1278 18.7522 35.104C18.7047 35.0565 19.4414 34.6287 20.0356 34.3435C20.8675 33.9395 21.7231 33.7255 23.6007 33.3928C24.5276 33.2502 25.4783 33.0601 25.7159 32.965C28.0689 32.2282 29.2335 30.3982 28.8532 28.164Z" fill="#FF007A"/>
<path d="M31.0161 31.9905C30.3981 30.6358 30.2555 29.3524 30.5883 28.1403C30.6358 28.0214 30.6833 27.9026 30.7309 27.9026C30.7784 27.9026 30.921 27.9739 31.0636 28.069C31.3488 28.2591 31.943 28.5918 33.4641 29.4237C35.3892 30.4694 36.4825 31.2775 37.243 32.2044C37.9085 33.0125 38.3126 33.9394 38.5027 35.0803C38.6215 35.722 38.5502 37.2668 38.3839 37.9085C37.861 39.9287 36.6726 41.5449 34.9376 42.4718C34.6762 42.6144 34.4623 42.7095 34.4385 42.7095C34.4148 42.7095 34.5098 42.4718 34.6524 42.1866C35.2228 40.9745 35.2941 39.8099 34.8663 38.5027C34.6049 37.6946 34.0583 36.7202 32.965 35.0803C31.6578 33.1789 31.3488 32.6798 31.0161 31.9905Z" fill="#FF007A"/>
<path d="M13.3097 39.2632C15.0684 37.7896 17.2312 36.7438 19.2277 36.4111C20.0833 36.2685 21.5093 36.316 22.2936 36.5299C23.5533 36.8627 24.6941 37.5757 25.2883 38.4551C25.8587 39.3107 26.1201 40.0475 26.3816 41.6874C26.4766 42.3291 26.5955 42.9946 26.6192 43.1372C26.8094 43.9928 27.1896 44.6583 27.665 45.0148C28.4018 45.5614 29.6852 45.5852 30.9448 45.1099C31.1587 45.0386 31.3489 44.9673 31.3489 44.991C31.3964 45.0386 30.7547 45.4664 30.3269 45.6803C29.7327 45.9893 29.2574 46.0843 28.6157 46.0843C27.4748 46.0843 26.5004 45.4901 25.7161 44.3018C25.5497 44.0641 25.217 43.3749 24.9318 42.7332C24.0999 40.808 23.6721 40.2376 22.6977 39.5959C21.842 39.0493 20.7488 38.9304 19.9169 39.3345C18.8236 39.8573 18.5384 41.2596 19.299 42.1152C19.6079 42.4717 20.1783 42.7569 20.6537 42.8282C21.5331 42.9471 22.2936 42.2578 22.2936 41.3784C22.2936 40.808 22.0797 40.4753 21.5093 40.2138C20.7488 39.8811 19.9169 40.2614 19.9407 40.9982C19.9407 41.3071 20.0833 41.4973 20.3922 41.6399C20.5824 41.7349 20.5824 41.7349 20.4398 41.7112C19.7505 41.5686 19.5842 40.713 20.1308 40.1663C20.7963 39.5008 22.1985 39.786 22.6739 40.713C22.864 41.0932 22.8878 41.8538 22.7214 42.3291C22.3174 43.3749 21.1766 43.9215 20.012 43.6125C19.2277 43.3986 18.8949 43.1847 17.9442 42.2103C16.2805 40.4991 15.6388 40.1663 13.2621 39.8098L12.8105 39.7385L13.3097 39.2632Z" fill="#FF007A"/>
<path fill-rule="evenodd" clip-rule="evenodd" d="M0.808161 1.02198C6.34589 7.74807 14.8783 18.2056 15.3061 18.776C15.6626 19.2513 15.52 19.7029 14.9258 20.0357C14.5931 20.2258 13.9038 20.4159 13.5711 20.4159C13.1908 20.4159 12.7392 20.2258 12.4303 19.9168C12.2164 19.7029 11.2894 18.3482 9.19794 15.0921C7.60555 12.5966 6.25082 10.5288 6.22706 10.5051C6.13199 10.4575 6.13199 10.4575 9.03157 15.6387C10.8616 18.8948 11.4558 20.0594 11.4558 20.202C11.4558 20.511 11.3607 20.6774 10.9805 21.1052C10.3388 21.8182 10.0536 22.6263 9.83965 24.3137C9.60198 26.1913 8.96027 27.5223 7.1302 29.7802C6.06069 31.1111 5.89432 31.3488 5.63288 31.8954C5.30014 32.5609 5.20507 32.9412 5.15754 33.7968C5.11 34.6999 5.20507 35.2704 5.46651 36.126C5.70418 36.8865 5.96562 37.3856 6.60733 38.3601C7.15397 39.2157 7.48671 39.8574 7.48671 40.0951C7.48671 40.2852 7.53424 40.2852 8.38986 40.0951C10.4338 39.6197 12.1213 38.8116 13.0482 37.8134C13.6186 37.1955 13.7612 36.8627 13.7612 36.0071C13.7612 35.4605 13.7375 35.3417 13.5949 35.0089C13.3572 34.486 12.9056 34.0582 11.9312 33.3927C10.6477 32.5134 10.1011 31.8004 9.95849 30.8497C9.83965 30.0416 9.98225 29.4949 10.6953 27.9976C11.432 26.4528 11.6222 25.8111 11.741 24.2424C11.8123 23.2442 11.9312 22.8402 12.2164 22.5312C12.5253 22.1985 12.7868 22.0796 13.5235 21.9846C14.7357 21.8182 15.52 21.5092 16.1379 20.915C16.6846 20.4159 16.9222 19.9168 16.946 19.18L16.9698 18.6334L16.6608 18.3007C15.5437 17.0172 0.0713819 0 8.06084e-05 0C-0.0236865 0 0.356587 0.451575 0.808161 1.02198ZM8.10465 34.8188C8.36609 34.3672 8.22349 33.7968 7.79568 33.5116C7.39164 33.2501 6.7737 33.369 6.7737 33.7255C6.7737 33.8206 6.82123 33.9156 6.96383 33.9632C7.17774 34.082 7.20151 34.2008 7.03514 34.4623C6.86877 34.7237 6.86877 34.9614 7.08267 35.1278C7.41541 35.3892 7.86698 35.2466 8.10465 34.8188Z" fill="#FF007A"/>
<path fill-rule="evenodd" clip-rule="evenodd" d="M17.7303 22.3174C17.1599 22.4837 16.6133 23.1017 16.4469 23.7196C16.3518 24.0999 16.3994 24.7891 16.5657 25.0031C16.8272 25.3358 17.0648 25.4309 17.7303 25.4309C19.0375 25.4309 20.1546 24.8604 20.2734 24.1712C20.3922 23.6008 19.8931 22.8165 19.2039 22.46C18.8474 22.2698 18.1106 22.1985 17.7303 22.3174ZM19.2514 23.5057C19.4415 23.2205 19.3702 22.9116 19.0137 22.6976C18.372 22.2936 17.3976 22.6263 17.3976 23.2443C17.3976 23.5533 17.8967 23.886 18.372 23.886C18.681 23.886 19.1088 23.6959 19.2514 23.5057Z" fill="#FF007A"/>
</g>
<defs>
<clipPath id="clip0">
<rect width="40" height="46.0606" fill="white"/>
</clipPath>
</defs>
</svg>
