<?xml version="1.0" standalone="no"?>
<!DOCTYPE svg PUBLIC "-//W3C//DTD SVG 20010904//EN"
 "http://www.w3.org/TR/2001/REC-SVG-20010904/DTD/svg10.dtd">
<svg version="1.0" xmlns="http://www.w3.org/2000/svg"
 width="1279.000000pt" height="1279.000000pt" viewBox="0 0 1279.000000 1279.000000"
 preserveAspectRatio="xMidYMid meet">
<metadata>
Created by potrace 1.14, written by Peter Selinger 2001-2017
</metadata>
<g transform="translate(0.000000,1279.000000) scale(0.100000,-0.100000)"
fill="#000000" stroke="none">
<path d="M6259 11809 c-57 -101 -118 -208 -134 -238 -17 -31 -70 -124 -118
-208 -48 -83 -99 -173 -113 -200 -15 -26 -71 -125 -124 -219 -126 -221 -141
-246 -184 -324 -20 -36 -41 -72 -46 -80 -6 -8 -13 -21 -17 -29 -6 -12 -139
-249 -240 -426 -22 -38 -51 -90 -65 -115 -14 -25 -34 -61 -45 -80 -11 -19 -43
-75 -70 -125 -28 -49 -60 -106 -72 -125 -11 -19 -24 -42 -28 -50 -4 -8 -28
-51 -53 -95 -26 -44 -58 -100 -72 -125 -14 -25 -35 -63 -48 -85 -12 -22 -81
-143 -152 -270 -72 -126 -139 -246 -150 -265 -38 -65 -61 -105 -88 -155 -29
-53 -84 -150 -100 -175 -5 -8 -18 -31 -29 -51 -10 -20 -84 -150 -163 -290 -80
-140 -198 -348 -263 -464 -65 -115 -149 -263 -187 -329 -37 -65 -68 -120 -68
-121 0 -2 -20 -38 -45 -79 -25 -42 -45 -78 -45 -80 0 -2 -22 -41 -48 -87 -27
-46 -60 -104 -74 -129 -14 -25 -41 -72 -60 -105 -19 -33 -57 -100 -85 -150
-28 -49 -377 -661 -775 -1360 -399 -698 -740 -1297 -758 -1330 -18 -33 -44
-77 -57 -97 -12 -21 -23 -42 -23 -48 0 -5 -4 -10 -8 -10 -4 0 -13 -12 -19 -28
-7 -15 -28 -54 -47 -87 -20 -33 -41 -69 -46 -80 -6 -11 -20 -36 -31 -55 -12
-19 -122 -213 -246 -430 -223 -392 -280 -491 -335 -583 -15 -26 -28 -50 -28
-52 0 -3 -20 -38 -44 -78 -24 -39 -54 -92 -68 -117 -37 -66 -64 -113 -128
-225 -31 -55 -68 -120 -82 -145 -14 -25 -113 -198 -220 -385 -107 -187 -207
-362 -222 -390 -16 -27 -31 -54 -36 -60 -18 -24 -90 -165 -85 -165 4 0 68 36
143 80 76 45 148 87 162 95 57 33 386 226 400 235 12 8 186 109 345 200 288
167 646 376 667 391 15 10 30 19 33 19 3 0 31 16 61 35 30 19 56 35 58 35 2 0
51 28 108 61 56 34 117 70 133 79 39 22 299 174 445 260 63 37 306 179 540
315 234 137 502 293 595 348 94 55 184 108 200 117 54 30 215 124 515 300 162
95 310 181 328 191 63 37 99 58 237 139 77 45 156 91 175 102 19 11 86 50 148
87 62 36 128 74 145 85 52 30 319 185 507 295 96 55 182 105 190 111 8 5 40
24 70 41 30 18 81 48 113 67 l58 35 37 -20 c20 -11 120 -69 222 -128 102 -59
199 -115 215 -125 328 -188 495 -286 517 -301 15 -11 30 -19 34 -19 4 0 35
-18 70 -40 35 -22 66 -40 68 -40 3 0 65 -35 138 -78 201 -119 441 -257 458
-265 8 -4 27 -15 42 -25 15 -9 107 -63 205 -120 98 -57 185 -107 193 -112 123
-73 172 -100 176 -100 2 0 23 -12 47 -27 36 -23 1205 -702 1327 -771 25 -14
167 -96 315 -182 149 -86 301 -174 338 -196 38 -21 81 -47 95 -56 15 -10 34
-21 42 -25 14 -6 288 -163 320 -182 15 -10 450 -263 685 -399 72 -42 143 -83
160 -91 16 -9 32 -19 35 -22 3 -3 10 -8 15 -10 6 -2 57 -31 113 -64 57 -33
120 -69 140 -81 21 -11 107 -61 192 -111 201 -116 208 -120 194 -102 -6 8 -25
39 -41 69 -17 30 -54 96 -83 145 -28 50 -62 108 -75 130 -55 97 -65 116 -89
154 -15 22 -26 43 -26 45 0 3 -20 39 -45 79 -25 41 -45 78 -45 82 0 4 -8 19
-19 33 -10 15 -31 50 -46 77 -16 28 -42 74 -59 104 -17 29 -40 70 -52 90 -11
20 -83 144 -159 276 -76 132 -155 269 -175 305 -20 36 -54 94 -75 130 -43 74
-33 58 -190 330 -65 113 -132 230 -150 260 -18 30 -44 75 -57 100 -14 25 -101
176 -193 335 -92 160 -180 314 -196 343 -16 28 -40 70 -54 92 -14 22 -25 42
-25 45 0 4 -13 26 -30 50 -16 24 -30 46 -30 48 0 3 -100 178 -221 388 -122
211 -233 404 -247 429 -34 62 -392 684 -457 795 -58 99 -162 280 -192 335 -11
19 -54 94 -95 165 -87 150 -434 754 -478 831 -10 16 -85 147 -167 290 -82 142
-161 279 -175 304 -14 25 -108 189 -210 365 -102 176 -196 340 -210 365 -14
25 -83 144 -153 265 -70 121 -141 245 -158 275 -16 30 -40 71 -52 90 -12 19
-35 60 -52 90 -28 51 -392 684 -434 754 -10 17 -24 42 -32 56 -13 24 -341 594
-900 1565 -142 248 -262 454 -267 458 -4 5 -54 -74 -111 -174z"/>
</g>
</svg>
