<svg width="25" height="25" viewBox="0 0 25 25" fill="none" xmlns="http://www.w3.org/2000/svg">
<path d="M7.64477 10.5052L12.4999 5.65L17.3574 10.5073L20.1824 7.6823L12.4999 0L4.81998 7.68L7.64487 10.505L7.64477 10.5052ZM0 12.5L2.82509 9.6745L5.64998 12.4994L2.82489 15.3245L0 12.5ZM7.64477 14.4951L12.4999 19.35L17.3573 14.4928L20.1838 17.3163L20.1824 17.3178L12.4999 25L4.81998 17.32L4.81598 17.316L7.64507 14.4948L7.64477 14.4951ZM19.3499 12.5012L22.175 9.6761L24.9999 12.501L22.1749 15.3261L19.3499 12.5012Z" fill="#F3BA2F"/>
<path d="M15.3651 12.4984H15.3663L12.4999 9.63184L10.3812 11.7499L10.1378 11.9934L9.63584 12.4955L9.63184 12.4994L9.63584 12.5035L12.4999 15.3681L15.3665 12.5014L15.3679 12.4998L15.3653 12.4984" fill="#F3BA2F"/>
</svg>
