<svg width="25" height="26" viewBox="0 0 25 26" fill="none" xmlns="http://www.w3.org/2000/svg">
<path d="M7.64477 10.9254L12.5 5.876L17.3574 10.9276L20.1824 7.98959L12.5 0L4.81998 7.9872L7.64487 10.9252L7.64477 10.9254ZM0 13L2.82509 10.0615L5.64998 12.9994L2.82489 15.9375L0 13ZM7.64477 15.0749L12.5 20.124L17.3573 15.0725L20.1838 18.009L20.1824 18.0105L12.5 26L4.81998 18.0128L4.81598 18.0086L7.64507 15.0746L7.64477 15.0749ZM19.3499 13.0012L22.175 10.0631L24.9999 13.001L22.1749 15.9391L19.3499 13.0012Z" fill="#9F9F9F"/>
<path d="M15.3651 12.9984H15.3663L12.4999 10.0171L10.3812 12.2199L10.1378 12.4732L9.63584 12.9954L9.63184 12.9994L9.63584 13.0037L12.4999 15.9828L15.3665 13.0015L15.3679 12.9998L15.3653 12.9984" fill="#9F9F9F"/>
</svg>
