<svg width="35" height="30" viewBox="0 0 35 30" fill="none" xmlns="http://www.w3.org/2000/svg">
<g clip-path="url(#clip0)">
<path d="M25.9701 9.13428C25.3433 8.77607 24.5373 8.77607 23.8209 9.13428L18.806 12.0895L15.403 13.9701L10.4776 16.9253C9.85075 17.2835 9.04478 17.2835 8.32836 16.9253L4.47761 14.597C3.85075 14.2388 3.40299 13.5223 3.40299 12.7164V8.23876C3.40299 7.52234 3.76119 6.80592 4.47761 6.35816L8.32836 4.11936C8.95522 3.76115 9.76119 3.76115 10.4776 4.11936L14.3284 6.44771C14.9552 6.80592 15.403 7.52234 15.403 8.32831V11.2835L18.806 9.31339V6.26861C18.806 5.55219 18.4478 4.83577 17.7313 4.38801L10.5672 0.179057C9.9403 -0.179152 9.13433 -0.179152 8.41791 0.179057L1.07463 4.47756C0.358209 4.83577 0 5.55219 0 6.26861V14.6865C0 15.4029 0.358209 16.1194 1.07463 16.5671L8.32836 20.7761C8.95522 21.1343 9.76119 21.1343 10.4776 20.7761L15.403 17.9104L18.806 15.9403L23.7313 13.0746C24.3582 12.7164 25.1642 12.7164 25.8806 13.0746L29.7313 15.3134C30.3582 15.6716 30.806 16.388 30.806 17.194V21.6716C30.806 22.388 30.4478 23.1044 29.7313 23.5522L25.9701 25.791C25.3433 26.1492 24.5373 26.1492 23.8209 25.791L19.9701 23.5522C19.3433 23.194 18.8955 22.4776 18.8955 21.6716V18.8059L15.4925 20.7761V23.7313C15.4925 24.4477 15.8507 25.1641 16.5672 25.6119L23.8209 29.8208C24.4478 30.1791 25.2537 30.1791 25.9701 29.8208L33.2239 25.6119C33.8507 25.2537 34.2985 24.5373 34.2985 23.7313V15.2238C34.2985 14.5074 33.9403 13.791 33.2239 13.3432L25.9701 9.13428Z" fill="#9F9F9F"/>
</g>
<defs>
<clipPath id="clip0">
<rect width="34.3881" height="30" fill="white"/>
</clipPath>
</defs>
</svg>
