<svg width="35" height="28" viewBox="0 0 35 28" fill="none" xmlns="http://www.w3.org/2000/svg">
<g clip-path="url(#clip0)">
<path d="M5.68525 20.9367C5.89647 20.7255 6.18689 20.6023 6.49491 20.6023H34.428C34.9385 20.6023 35.1937 21.2183 34.8328 21.5792L29.3149 27.0971C29.1037 27.3084 28.8132 27.4316 28.5052 27.4316H0.572104C0.0616693 27.4316 -0.193548 26.8155 0.167276 26.4547L5.68525 20.9367Z" fill="#9F9F9F"/>
<path d="M5.68452 0.334423C5.90454 0.123208 6.19496 0 6.49418 0H34.4273C34.9377 0 35.1929 0.616042 34.8321 0.976867L29.3141 6.49485C29.1029 6.70606 28.8125 6.82927 28.5045 6.82927H0.571372C0.0609368 6.82927 -0.194281 6.21323 0.166544 5.8524L5.68452 0.334423Z" fill="#9F9F9F"/>
<path d="M29.3149 10.5695C29.1037 10.3583 28.8132 10.2351 28.5052 10.2351H0.572104C0.0616693 10.2351 -0.193548 10.8511 0.167276 11.212L5.68525 16.73C5.89647 16.9412 6.18689 17.0644 6.49491 17.0644H34.428C34.9385 17.0644 35.1937 16.4483 34.8328 16.0875L29.3149 10.5695Z" fill="#9F9F9F"/>
</g>
<defs>
<clipPath id="clip0">
<rect width="35" height="27.4315" fill="white"/>
</clipPath>
</defs>
</svg>
